<svg aria-hidden="true" style="position: absolute; width: 0; height: 0; overflow: hidden;" version="1.1" xmlns="http://www.w3.org/2000/svg" xmlns:xlink="http://www.w3.org/1999/xlink">
<defs>
<symbol id="icon-Illustration---pavan-674" viewBox="0 0 26 32">
<path fill="#000" style="fill: var(--color1, #000)" opacity="0.7" d="M0.61 31.419c3.382 1.044 6.962 0.070 10.468-0.046 1.604-0.052 3.21 0.076 4.811 0.168 2.531 0.145 5.068 0.203 7.602 0.258 0.771 0.017 1.568 0.029 2.28-0.308 0.17-0.081 0.36-0.241 0.314-0.444-0.046-0.212-0.295-0.244-0.488-0.232-3.408 0.192-6.818 0.035-10.223-0.136-3.421-0.171-6.849-0.354-10.272-0.212-0.92 0.038-1.85 0.18-2.768 0.171-0.65-0.003-1.342 0.093-1.722 0.78z"></path>
<path fill="#000" style="fill: var(--color1, #000)" opacity="0.7" d="M0.609 31.419c3.382 1.044 6.962 0.070 10.468-0.046 1.604-0.052 3.21 0.076 4.811 0.168 2.531 0.145 5.068 0.203 7.602 0.258 0.771 0.017 1.568 0.029 2.28-0.308 0.17-0.081 0.36-0.241 0.314-0.444-0.046-0.212-0.295-0.244-0.488-0.232-3.408 0.192-6.818 0.035-10.223-0.136-3.421-0.171-6.849-0.354-10.272-0.212-0.92 0.038-1.85 0.18-2.768 0.171-0.65-0.003-1.342 0.093-1.722 0.78z"></path>
<path fill="#00719a" style="fill: var(--color2, #00719a)" opacity="0.7" d="M9.179 10.862c-0.044 0.131-0.090 0.261-0.17 0.368-0.087 0.116-0.211 0.189-0.332 0.258-0.892 0.519-1.784 1.036-2.675 1.555-0.111-0.218-0.221-0.438-0.334-0.656 0.694-0.595 1.385-1.186 2.079-1.781 0.085-0.072 0.17-0.145 0.239-0.235 0.105-0.139 0.17-0.313 0.229-0.484 0.347-0.972 0.691-1.946 1.038-2.918 0.121-0.342 0.257-0.705 0.527-0.914 0.252-0.194 0.738-0.194 0.858 0.183 0.123 0.386-0.218 0.998-0.337 1.343-0.375 1.091-0.75 2.187-1.123 3.281z"></path>
<path fill="#404040" style="fill: var(--color3, #404040)" opacity="0.7" d="M6.335 13.282c-0.447-0.554-1.799-0.638-2.285-0.087-0.676 0.766 0.578 1.265 1.049 1.404 0.396 0.119 0.547-0.612 0.165-0.673-0.216-0.035-0.437-0.067-0.648-0.133-0.17-0.052-0.324-0.154-0.093-0.319 0.098-0.070 0.329-0.052 0.442-0.061 0.439-0.029 0.907 0.113 1.334 0.020 0.062-0.012 0.074-0.104 0.036-0.151z"></path>
<path fill="#333" style="fill: var(--color4, #333)" opacity="0.7" d="M8.42 30.253c0.612-0.598 1.038-1.387 1.156-2.361 0.26-2.17-0.678-4.426-2.429-5.508-1.347-0.832-3.254-1.247-4.711-0.392-2.645 1.552-3.125 6.579-0.807 8.592 1.768 1.529 5.035 1.383 6.79-0.33z"></path>
<path fill="#404040" style="fill: var(--color3, #404040)" opacity="0.7" d="M8.104 29.775c0.56-0.543 0.956-1.253 1.067-2.132 0.247-1.955-0.604-3.983-2.2-4.948-1.228-0.743-2.971-1.105-4.307-0.331-2.426 1.41-2.886 5.941-0.771 7.739 1.611 1.372 4.6 1.227 6.212-0.328z"></path>
<path fill="#ddd2c7" style="fill: var(--color5, #ddd2c7)" opacity="0.7" d="M11.889 19.306c-0.429 0.017-0.83 0.162-1.208 0.389-0.062 0.038-0.129 0.081-0.159 0.154-0.031 0.070-0.028 0.154-0.023 0.232 0.036 0.598 0.072 1.195 0.108 1.795 0.028 0.479 0.059 0.96 0.139 1.436 0.075 0.45 0.267 0.83 0.357 1.265 0.211 1.018 0.501 2.013 0.792 3.002 0.141-0.017 0.28-0.035 0.421-0.052 0 0-0.203-1.268-0.218-1.349-0.051-0.299-0.159-0.569-0.206-0.876-0.054-0.348-0.095-0.696-0.134-1.047-0.039-0.348-0.080-0.696-0.054-1.044 0.015-0.215 0.057-0.429 0.098-0.638 0.203-1.053 0.406-2.109 0.609-3.162-0.165-0.084-0.342-0.11-0.522-0.105z"></path>
<path fill="#737373" style="fill: var(--color6, #737373)" opacity="0.7" d="M11.403 12.388c-0.057 0.072-0.134 0.2-0.144 0.299-0.254 2.245-0.596 4.751-0.848 6.996 0.712 0.229 1.452 0.357 2.192 0.377 1.298-2.703 2.621-5.491 2.976-8.557-1.365 0.348-2.727 0.696-4.091 1.044-0.087 0.020-0.026-0.238-0.085-0.16z"></path>
<path fill="#333" style="fill: var(--color4, #333)" opacity="0.7" d="M22.648 25.322c-0.175-0.702-0.532-1.323-1.115-1.755-1.298-0.966-3.053-0.992-4.333 0.049-0.987 0.801-1.894 2.199-1.84 3.675 0.098 2.68 3.141 4.818 5.207 3.64 1.573-0.899 2.585-3.594 2.082-5.61z"></path>
<path fill="#404040" style="fill: var(--color3, #404040)" opacity="0.7" d="M22.305 25.435c-0.154-0.635-0.473-1.195-0.992-1.584-1.156-0.87-2.724-0.89-3.87 0.052-0.882 0.725-1.694 1.99-1.65 3.321 0.082 2.422 2.796 4.345 4.641 3.278 1.408-0.812 2.316-3.249 1.871-5.067z"></path>
<path fill="#ebebeb" style="fill: var(--color7, #ebebeb)" opacity="0.7" d="M19.376 26.175c-0.021-0.006-0.041-0.012-0.062-0.020-0.673-0.267-1.403-0.105-2.102-0.070-0.843 0.044-1.709-0.415-2.549-0.426-0.712-0.009-1.103-0.258-1.177-0.992-0.033-0.325-0.17-0.638-0.211-0.969-0.018-0.142-0.208-0.455-0.319-0.699-0.075-0.162-0.198-0.29-0.352-0.345-0.624-0.226-1.031-0.273-1.691-0.644-0.581-0.325-1.136-0.702-1.722-1.018-0.583-0.316-1.252-0.629-1.313-1.505-0.013-0.177 0.008-0.354 0.054-0.522 0.193-0.693 0.709-1.137 1.259-1.439 1.241-0.679 2.668-0.719 4.043-0.818 0.853-0.061 1.791-0.119 2.596-0.47 0.285-0.125 0.84-0.76 0.352-0.998-0.242-0.116-0.92 0.148-1.182 0.194-0.409 0.073-0.815 0.151-1.223 0.226-1.665 0.313-3.333 0.632-5.017 0.792-0.995 0.093-2.084 0.174-2.809 0.948-0.786 0.838-0.869 2.268-0.488 3.411 0.003 0.009 0.008 0.017 0.010 0.026 0.033 0.235 0.118 0.453 0.234 0.58 0.021 0.023 0.046 0.047 0.067 0.070 0.074 0.119 0.157 0.229 0.254 0.325 0.103 0.102 0.216 0.183 0.337 0.252 0.393 0.354 0.807 0.682 1.221 1.004 1.403 1.094 2.806 2.19 4.21 3.284 0.342 0.267 0.696 0.54 1.103 0.641 0.447 0.113 0.912 0.006 1.365-0.075 1.406-0.255 2.835-0.276 4.261-0.279 0.303 0.113 0.609 0.226 0.912 0.342-0.113-0.238 0.064-0.577-0.059-0.806z"></path>
<path fill="#ebebeb" style="fill: var(--color7, #ebebeb)" opacity="0.7" d="M5.494 14.227c-0.031-0.215-0.586-0.125-0.614 0.084-0.123 0.972-0.069 3.153-0.080 4.116-0.013 1.001-0.026 2.001-0.031 3.005-0.013 1.909-0.085 3.837-0.887 5.79-0.147 0.354 0.838 0.36 0.979 0.009 0.779-1.961 0.825-3.893 0.802-5.804-0.013-0.995-0.039-1.99-0.062-2.988-0.026-0.998 0.033-3.228-0.108-4.212z"></path>
<path fill="#3d322b" style="fill: var(--color8, #3d322b)" opacity="0.7" d="M10.471 27.999c-0.046 0.093-0.023 0.203 0.141 0.316 0.457 0.311 1.064 0.29 1.506-0.049 0.075-0.058 0.146-0.125 0.229-0.168 0.154-0.084 0.36-0.099 0.44-0.273 0.085-0.183-0.026-0.403-0.134-0.568-0.095-0.145-0.144-0.281-0.319-0.212-0.321 0.131-0.643 0.258-0.946 0.435-0.195 0.113-0.388 0.247-0.599 0.305-0.131 0.035-0.267 0.113-0.319 0.215z"></path>
<path fill="#4d4d4d" style="fill: var(--color9, #4d4d4d)" opacity="0.7" d="M13.46 26.079c-0.036-0.122-0.103-0.229-0.203-0.302-0.357-0.258-0.894-0.258-1.146 0.194-0.27 0.485-0.141 1.143 0.296 1.41 0.182 0.113 0.434 0.215 0.642 0.159 0.236-0.061 0.393-0.249 0.519-0.484 0.188-0.351 0.093-0.705-0.108-0.977z"></path>
<path fill="#4d4d4d" style="fill: var(--color9, #4d4d4d)" opacity="0.7" d="M13.215 23.596c-0.257 0.27-0.501 0.566-0.689 0.902-0.077 0.136 0.1 0.296 0.193 0.168 0.218-0.299 0.439-0.58 0.707-0.827 0.154-0.139-0.059-0.4-0.211-0.244z"></path>
<path fill="#4d4d4d" style="fill: var(--color9, #4d4d4d)" opacity="0.7" d="M12.534 24.527c0.039 0.682 0.149 1.36 0.252 2.030 0.031 0.209 0.316 0.119 0.283-0.087-0.111-0.656-0.188-1.325-0.306-1.978-0.026-0.145-0.236-0.116-0.229 0.035z"></path>
<path fill="#4d4d4d" style="fill: var(--color9, #4d4d4d)" opacity="0.7" d="M12.392 27.129c-0.059 0.229-0.087 0.467-0.111 0.705-0.021 0.194 0.010 0.47-0.044 0.676-0.236-0.020-0.465-0.029-0.699-0.099-0.265-0.078-0.378 0.403-0.113 0.479 0.316 0.090 0.655 0.151 0.977 0.061 0.077-0.020 0.139-0.116 0.136-0.212-0.008-0.223 0.033-0.458 0.041-0.685 0.010-0.284 0.049-0.56 0.085-0.838 0.023-0.203-0.218-0.293-0.272-0.087z"></path>
<path fill="#ebebeb" style="fill: var(--color7, #ebebeb)" opacity="0.7" d="M3.358 26.659c0.008 0.29 0.069 0.586 0.224 0.821 0.131 0.2 0.326 0.339 0.535 0.421 0.355 0.139 0.758 0.105 1.090-0.093s0.586-0.551 0.689-0.957c0.031-0.125 0.049-0.255 0.026-0.383-0.113-0.659-0.889-1.273-1.467-1.27-0.673 0-1.113 0.772-1.095 1.462z"></path>
<path fill="#ebebeb" style="fill: var(--color7, #ebebeb)" opacity="0.7" d="M17.783 27.117c0.008 0.29 0.069 0.586 0.224 0.821 0.131 0.2 0.326 0.339 0.535 0.42 0.355 0.139 0.758 0.105 1.090-0.093s0.586-0.551 0.689-0.957c0.031-0.125 0.049-0.255 0.026-0.383-0.113-0.658-0.889-1.273-1.468-1.27-0.673 0-1.113 0.772-1.095 1.462z"></path>
<path fill="#eaddd0" style="fill: var(--color10, #eaddd0)" opacity="0.7" d="M11.715 23.976c0.298-0.133 0.553-0.403 0.694-0.74-0.815-0.983-1.635-2.123-2.105-3.394-0.051-0.136-0.095-0.29-0.059-0.432 0.036-0.139 0.139-0.241 0.239-0.328 0.152-0.133 0.923-0.597 0.899-0.777-0.021-0.159-0.475-0.45-0.591-0.551-0.244-0.215-0.411-0.322-0.709-0.418-0.036-0.012-0.072-0.023-0.108-0.014-0.031 0.009-0.057 0.029-0.082 0.049-0.326 0.278-0.581 0.658-0.766 1.079-0.085 0.194-0.157 0.403-0.177 0.621-0.069 0.714 0.468 1.23 0.822 1.714 0.463 0.632 0.892 1.297 1.321 1.961 0.252 0.383 0.501 0.774 0.622 1.23z"></path>
<path fill="#6b6b6b" style="fill: var(--color11, #6b6b6b)" opacity="0.7" d="M15.313 11.622c0.275-0.087 0.56 0.081 0.655 0.394 0.429 1.413 0.136 3.127-0.771 4.22-0.491 0.592-1.121 0.995-1.74 1.389-0.668 0.426-1.339 0.853-2.007 1.279-0.365-0.569-0.804-1.073-1.293-1.491-0.062-0.052-0.126-0.107-0.157-0.191-0.054-0.154 0.033-0.322 0.118-0.455 0.419-0.658 0.892-1.276 1.228-1.996 0.339-0.719 0.537-1.572 0.357-2.358 1.218-0.151 2.424-0.418 3.608-0.792z"></path>
<path fill="#3d322b" style="fill: var(--color8, #3d322b)" opacity="0.7" d="M11.054 24.899c-0.008 0.107 0.054 0.194 0.244 0.209 0.527 0.041 1.069-0.293 1.342-0.827 0.046-0.090 0.087-0.189 0.144-0.27 0.108-0.154 0.288-0.276 0.298-0.473 0.010-0.209-0.172-0.348-0.332-0.441-0.139-0.081-0.234-0.177-0.365-0.026-0.242 0.281-0.486 0.566-0.694 0.882-0.136 0.203-0.26 0.423-0.429 0.586-0.105 0.101-0.2 0.244-0.208 0.36z"></path>
<path fill="#404040" style="fill: var(--color3, #404040)" opacity="0.7" d="M6.353 15.19c-0.537 0.029-1.085 0.070-1.624 0.046-0.123-0.006-0.247-0.014-0.37-0.026-0.355 0.023-0.704-0.348-0.265-0.69 0.167-0.2 0.753-0.064 0.951-0.012 0.329 0.087 0.47-0.484 0.139-0.571-0.668-0.177-2.344-0.029-1.853 1.212 0.452 1.149 2.3 0.624 3.053 0.287 0.105-0.049 0.103-0.252-0.031-0.247z"></path>
<path fill="#066984" style="fill: var(--color12, #066984)" opacity="0.7" d="M8.096 7.126c0.514 0.537 0.635 0.824 0.966 1.532 0.234 0.502 0.416 1.036 0.658 1.532 0.342 0.705 0.797 1.323 1.249 1.938 0.149 0.2 0.301 0.406 0.501 0.531 0.141 0.087 0.301 0.131 0.46 0.16 1.473 0.267 2.958-0.31 4.313 0.4 0.393-2.144-1.239-3.974-2.344-5.546-0.18-0.255-0.329-0.508-0.542-0.728-0.224-0.232-0.452-0.452-0.691-0.661-0.468-0.412-0.964-0.78-1.483-1.099-0.681-0.421-1.411-0.595-2.059 0.032-0.488 0.47-0.871 1.201-1.028 1.912z"></path>
<path fill="#eaddd0" style="fill: var(--color10, #eaddd0)" opacity="0.7" d="M6.351 2.561c-0.195 0.273-0.167 0.67-0.11 1.012 0.054 0.342 0.126 0.685 0.285 0.978 0.111 0.203 0.26 0.371 0.411 0.534 0.193 0.209 0.414 0.392 0.594 0.612 0.162 0.194 0.288 0.354 0.542 0.377 0.062 0.006 0.126 0.003 0.185-0.017 0.141-0.052 0.242-0.2 0.324-0.345 0.131-0.238 0.303-0.455 0.347-0.731 0.046-0.273-0.095-0.528-0.1-0.789-0.005-0.238 0.054-0.453-0.003-0.693-0.031-0.133-0.087-0.255-0.154-0.368-0.337-0.56-0.941-0.835-1.532-0.867-0.283-0.014-0.604 0.041-0.789 0.299z"></path>
<path fill="#00719a" style="fill: var(--color2, #00719a)" opacity="0.7" d="M5.683 13.92c-0.367-0.122-0.696-0.392-0.915-0.754 1.853-2.292 3.421-4.873 4.981-7.44 0.308 0.087 0.627 0.18 0.884 0.397s0.442 0.589 0.375 0.957c-0.054 0.29-0.247 0.516-0.429 0.725-1.712 1.949-3.346 3.991-4.896 6.115z"></path>
<path fill="#eaddd0" style="fill: var(--color10, #eaddd0)" opacity="0.7" d="M4.444 13.496c-0.236 0.058-0.475 0.116-0.689 0.244-0.072 0.043-0.141 0.096-0.182 0.171-0.044 0.075-0.054 0.183-0.008 0.258 0.1 0.165 0.36 0.067 0.481 0.212 0.028 0.035 0.046 0.081 0.074 0.116 0.064 0.072 0.167 0.075 0.26 0.070 0.203-0.009 0.414-0.020 0.599-0.116 0.236-0.122 0.401-0.365 0.555-0.603 0.015-0.026 0.033-0.052 0.039-0.081 0.008-0.052-0.018-0.104-0.049-0.145-0.116-0.165-0.337-0.319-0.529-0.305-0.077 0.006-0.128 0.052-0.198 0.084-0.113 0.049-0.236 0.067-0.352 0.096z"></path>
<path fill="#edddb2" style="fill: var(--color13, #edddb2)" opacity="0.7" d="M5.812 3.225c-0.17-0.238-0.234-0.58-0.162-0.882 0.069-0.293 0.252-0.528 0.455-0.708s0.432-0.313 0.648-0.479c0.316-0.241 0.596-0.545 0.828-0.896 0.031-0.046 0.082-0.096 0.118-0.055 0.021 0.113 0.041 0.226 0.062 0.342 0.095-0.142 0.195-0.29 0.337-0.357 0.267-0.133 0.617 0.052 0.846-0.165-0.033 0.812-0.334 1.595-0.789 2.199-0.329 0.438-0.735 0.783-1.177 1.038-0.411 0.232-0.804 0.461-1.164-0.038z"></path>
<path fill="#edddb2" style="fill: var(--color13, #edddb2)" opacity="0.7" d="M8.289 3.579c0.033-0.075 0.082-0.165 0.162-0.162 0.1 0.003 0.139 0.151 0.111 0.252s-0.093 0.194-0.082 0.302c0.010 0.093 0.072 0.168 0.126 0.241 0.2 0.278 0.298 0.635 0.267 0.98 0.17-0.548 0.393-1.076 0.666-1.572 0.118-0.215 0.247-0.426 0.308-0.667 0.054-0.209 0.059-0.429 0.044-0.644-0.018-0.249-0.062-0.505-0.198-0.711-0.208-0.316-0.604-0.455-0.961-0.418-0.36 0.038-0.686 0.226-0.971 0.453-0.221 0.177-0.969 0.745-0.632 1.125 0.177 0.2 0.527 0.073 0.75 0.183 0.234 0.11 0.406 0.368 0.411 0.638z"></path>
</symbol>
<symbol id="icon-Illustration---pavan-683" viewBox="0 0 18 32">
<path fill="#f7ebe7" style="fill: var(--color14, #f7ebe7)" opacity="0.9" d="M7.843 8.398l-0.238 5.518-1.121 4.046h2.018l1.048-3.486 0.327-3.962-2.034-2.116z"></path>
<path fill="#fcc9a7" style="fill: var(--color15, #fcc9a7)" opacity="0.9" d="M7.786 27.684l0.406 2.187-1.363 0.187-0.388-2.154 1.344-0.221z"></path>
<path fill="#1f252a" style="fill: var(--color16, #1f252a)" opacity="0.9" d="M8.274 29.673c-0.035-0.118-0.144-0.16-0.218-0.084-0.146 0.149-0.408 0.333-0.795 0.288-0.402-0.046-0.553-0.32-0.611-0.518-0.031-0.103-0.116-0.156-0.193-0.112l-2.44 1.419c-0.147 0.086-0.264 0.246-0.322 0.446-0.055 0.187 0.055 0.39 0.207 0.385l4.215-0.135c0.166-0.004 0.293-0.194 0.278-0.413l-0.069-1.074c-0.002-0.017-0.004-0.036-0.009-0.053l-0.044-0.152z"></path>
<path fill="#092330" style="fill: var(--color17, #092330)" opacity="0.9" d="M7.763 17.107h-3.164c0 0-1.927-0.124-2.041 1.705s2.825 7.063 3.286 9.859l2.645-0.253-1.905-7.602 4.737 0.032c0.351 0.002 0.7-0.057 1.031-0.189 0.922-0.37 2.33-0.901 1.563-3.84l-6.153 0.288z"></path>
<path fill="#fcc9a7" style="fill: var(--color15, #fcc9a7)" opacity="0.9" d="M10.205 27.692l0.644 2.615-1.363 0.187-0.626-2.581 1.344-0.221z"></path>
<path fill="#1f252a" style="fill: var(--color16, #1f252a)" opacity="0.9" d="M10.93 30.109c-0.035-0.118-0.144-0.16-0.218-0.084-0.146 0.149-0.408 0.333-0.795 0.288-0.402-0.046-0.553-0.32-0.611-0.518-0.031-0.103-0.116-0.156-0.193-0.112l-2.44 1.419c-0.147 0.086-0.264 0.246-0.322 0.446-0.055 0.187 0.055 0.39 0.207 0.385l4.288-0.135c0.166-0.004 0.293-0.194 0.278-0.413l-0.144-1.074c-0.002-0.017-0.004-0.036-0.009-0.053l-0.042-0.152z"></path>
<path fill="#f7ebe7" style="fill: var(--color14, #f7ebe7)" opacity="0.9" d="M11.543 6.229c0.071 0.080 3.246 1.017 3.246 1.017l-0.679 2.086-3.471-0.303 0.904-2.8z"></path>
<path fill="#f7ebe7" style="fill: var(--color14, #f7ebe7)" opacity="0.9" d="M10.234 6.732c0 0-2.068 0.874-2.39 1.665 0.111 1.118 0.451 2.194 1.011 3.114 0.688 1.128 1.537 3.067 1.381 5.596h5.98c0 0-0.322-7.114-2.092-9.844l-3.89-0.53z"></path>
<path fill="#fcc9a7" style="fill: var(--color15, #fcc9a7)" opacity="0.9" d="M10.912 7.861c0.588-0.139 0.966-0.802 0.846-1.482l-0.351-1.99-2.127 0.503 0.351 1.989c0.12 0.68 0.693 1.118 1.281 0.979z"></path>
<path fill="#f4be9a" style="fill: var(--color18, #f4be9a)" opacity="0.9" d="M11.553 5.084c0 0-0.224 1.613-1.308 1.709-0.95 0.084-0.859-1.505-0.859-1.505l2.167-0.204z"></path>
<path fill="#fcc9a7" style="fill: var(--color15, #fcc9a7)" opacity="0.9" d="M10.33 5.909l0.187-0.051c0.941-0.253 1.526-1.339 1.308-2.425l-0.247-1.24c-0.218-1.088-1.157-1.766-2.096-1.514l-0.187 0.051c-0.941 0.253-1.526 1.339-1.308 2.425l0.247 1.24c0.218 1.088 1.157 1.766 2.096 1.514z"></path>
<path fill="#1c2226" style="fill: var(--color19, #1c2226)" opacity="0.9" d="M11.236 3.949c-0.044 0.086-0.086 0.217-0.1 0.415-0.016 0.251-0.126 0.488-0.307 0.627-0.522 0.4-0.921-0.613-1.692-0.434 0 0-0.302 0.053-0.362 0.442-0.060 0.387-0.48-0.29-0.573-0.754s-0.14 2.293 1.759 2.059c0 0 0.959-0.036 1.605-1.166 0.071-0.124 0.113-0.269 0.116-0.419 0.005-0.221-0.022-0.556-0.204-0.796-0.064-0.088-0.191-0.076-0.242 0.025z"></path>
<path fill="#1c2226" style="fill: var(--color19, #1c2226)" opacity="0.9" d="M11.238 3.324c0 0-0.82-0.314-0.682-1.701 0 0-2.038 2.232-3.548 0.594 0 0 0.675-0.208 0.953-0.743 0.508-0.975 1.967-2.318 3.135-0.764 0 0 1.421-0.255 1.013 2.278l-0.871 0.337z"></path>
<path fill="#fcc9a7" style="fill: var(--color15, #fcc9a7)" opacity="0.9" d="M11.238 3.324c0.078 0.387 0.413 0.63 0.748 0.541 0.337-0.091 0.544-0.478 0.468-0.865-0.078-0.387-0.413-0.629-0.748-0.541-0.337 0.091-0.546 0.478-0.468 0.865z"></path>
<path fill="#0c2c40" style="fill: var(--color20, #0c2c40)" opacity="0.9" d="M10.201 7.783l0.879 0.019-0.615 1.474-0.664-1.413 0.4-0.080z"></path>
<path fill="#fff7f3" style="fill: var(--color21, #fff7f3)" opacity="0.9" d="M11.832 6.294l-1.132 1.528 0.737 0.979 1.355-2.156c0 0-0.347-0.646-0.961-0.352z"></path>
<path fill="#fff7f3" style="fill: var(--color21, #fff7f3)" opacity="0.9" d="M10.201 7.783l-0.651 0.851-0.458-1.326c0 0 0.12-0.596 0.495-0.482l0.615 0.958z"></path>
<path fill="#0c2c40" style="fill: var(--color20, #0c2c40)" opacity="0.9" d="M10.441 8.8c0 0-0.85 2.564-0.639 6.202l0.837 0.884 0.977-1.088-1.053-6.164-0.122 0.166z"></path>
<path fill="#fcc9a7" style="fill: var(--color15, #fcc9a7)" opacity="0.9" d="M12.029 14.888l-1.819 0.693-0.12 1.236 2.412-0.834-0.473-1.095z"></path>
<path fill="#fcc9a7" style="fill: var(--color15, #fcc9a7)" opacity="0.9" d="M10.481 16.398c0 0.722-0.506 1.309-1.132 1.309-0.624 0-1.132-0.585-1.132-1.309 0-0.722 0.506-1.309 1.132-1.309 0.624 0 1.132 0.585 1.132 1.309z"></path>
<path fill="#0c2c40" style="fill: var(--color20, #0c2c40)" opacity="0.9" d="M10.234 17.107h-3.162c0 0-1.927-0.124-2.041 1.705s3.042 7.4 3.502 10.194l2.645-0.253-2.121-7.939 4.737 0.032c0.351 0.002 0.7-0.057 1.031-0.189 0.922-0.37 2.33-0.901 1.563-3.84l-6.154 0.291z"></path>
<path fill="#b2b2b2" style="fill: var(--color22, #b2b2b2)" opacity="0.9" d="M0.695 10.638h5.467c0.18 0 0.335 0.145 0.373 0.35l1.030 5.587c0.051 0.274-0.131 0.533-0.373 0.533h-5.558c-0.182 0-0.338-0.149-0.373-0.356l-0.939-5.587c-0.047-0.274 0.133-0.526 0.373-0.526z"></path>
<path fill="#d1d1d1" style="fill: var(--color23, #d1d1d1)" opacity="0.9" d="M0.381 10.638h5.465c0.18 0 0.335 0.145 0.373 0.35l1.030 5.587c0.051 0.274-0.129 0.533-0.373 0.533h-5.556c-0.182 0-0.338-0.149-0.373-0.356l-0.939-5.587c-0.047-0.274 0.133-0.526 0.373-0.526z"></path>
<path fill="#b2b2b2" style="fill: var(--color22, #b2b2b2)" opacity="0.9" d="M7.416 16.629h3.735c0.115 0 0.206 0.107 0.206 0.238 0 0.133-0.093 0.238-0.206 0.238h-3.808l0.073-0.476z"></path>
<path fill="#fff" style="fill: var(--color24, #fff)" opacity="0.9" d="M3.764 13.726c0 0.381-0.266 0.688-0.595 0.688s-0.595-0.309-0.595-0.688c0-0.381 0.267-0.688 0.595-0.688 0.329 0 0.595 0.307 0.595 0.688z"></path>
<path fill="#f7ebe7" style="fill: var(--color14, #f7ebe7)" opacity="0.9" d="M13.484 9.233l1.998 3.733-4.781 1.975 0.655 1.638c0 0 4.088-0.53 6.064-2.293 0.182-0.162 0.273-0.425 0.242-0.688-0.093-0.842-0.489-2.886-2.179-5.792-0.344-0.592-1.028-0.771-1.561-0.413-0.555 0.371-0.75 1.192-0.437 1.84z"></path>
</symbol>
<symbol id="icon-Illustration---pavan-712" viewBox="0 0 29 32">
<path fill="#000" style="fill: var(--color1, #000)" opacity="0.7" d="M14.543 31.337c0.7-0.014 1.403-0.026 2.101-0.103 0.349-0.037 0.7-0.091 1.034-0.208 0.263-0.091 0.539-0.245 0.661-0.534 0.017-0.040 0.032-0.086 0.024-0.131-0.005-0.046-0.029-0.083-0.059-0.114-0.141-0.163-0.361-0.169-0.559-0.166-1.935 0.031-3.87 0.074-5.799 0.257-0.346 0.034-0.739 0.1-0.939 0.434-0.437 0.728 1.066 0.568 1.337 0.577 0.734 0.017 1.466 0.003 2.198-0.011z"></path>
<path fill="#000" style="fill: var(--color1, #000)" opacity="0.7" d="M14.542 31.337c0.7-0.014 1.403-0.026 2.101-0.103 0.349-0.037 0.7-0.091 1.034-0.208 0.263-0.091 0.539-0.245 0.661-0.534 0.017-0.040 0.032-0.086 0.024-0.131-0.005-0.046-0.029-0.083-0.058-0.114-0.142-0.163-0.361-0.169-0.559-0.166-1.935 0.031-3.87 0.074-5.799 0.257-0.346 0.034-0.739 0.1-0.939 0.434-0.437 0.728 1.066 0.568 1.337 0.577 0.734 0.017 1.466 0.003 2.198-0.011z"></path>
<path fill="#666" style="fill: var(--color25, #666)" opacity="0.7" d="M9.615 20.599c0.522 3.003 2.008 5.686 2.528 8.691 0.034 0.197 0.066 0.399 0.159 0.565 0.095 0.166 0.271 0.288 0.434 0.237 0.298-0.094 0.295-0.58 0.254-0.936-0.122-1.065-0.017-2.146 0.090-3.214 0.166-1.664 0.332-3.328 0.498-4.995 0.124-0.151 0.349-0.117 0.486 0.020 0.137 0.134 0.202 0.34 0.256 0.54 0.242 0.888 0.342 1.815 0.444 2.737 0.203 1.847 0.403 3.697 0.427 5.557 0.144 0.011 0.288 0.023 0.432 0.032 0.59-1.844 1.034-3.745 1.452-5.649 0.212-0.965 0.417-1.932 0.551-2.917 0.176-1.293 0.222-2.606 0.259-3.913 0.007-0.266 0.010-0.548-0.12-0.768-0.115-0.194-0.312-0.294-0.503-0.38-1.632-0.734-3.386-1.005-5.129-1.165-0.49-0.046-0.986-0.080-1.469 0.023-0.381 0.080-0.795 0.257-1.081 0.577-0.322 0.363-0.217 0.936-0.22 1.436-0.005 1.179 0.049 2.363 0.251 3.522z"></path>
<path fill="#fcee9f" style="fill: var(--color26, #fcee9f)" opacity="0.7" d="M8.582 13.934c-0.161 0.571-0.288 1.247 0.010 1.738 0.142 0.231 0.356 0.382 0.573 0.511 1.22 0.719 2.616 0.888 3.974 1.042 1.225 0.14 2.454 0.28 3.684 0.203 0.586-0.037 1.203-0.137 1.659-0.568 0.434-0.408 0.661-1.062 0.722-1.71s-0.022-1.302-0.107-1.947c-0.093-0.708-0.185-1.416-0.344-2.107-0.276-1.202-0.756-2.338-1.401-3.325-0.488-0.745-1.081-1.419-1.808-1.818-0.688-0.38-1.732-0.554-2.447-0.146-0.715 0.405-1.371 1.573-1.849 2.292-1.164 1.75-2.074 3.731-2.667 5.834z"></path>
<path fill="#f2d6c9" style="fill: var(--color27, #f2d6c9)" opacity="0.7" d="M15.398 3.876c-0.007 0.151-0.015 0.305-0.051 0.454-0.090 0.351-0.364 0.668-0.734 0.836s-0.832 0.188-1.213 0.040c-0.378-0.146-0.656-0.431-0.878-0.731-0.464-0.628-0.734-1.376-0.671-2.118 0.010-0.111 0.029-0.225 0.11-0.314 0.115-0.126 0.317-0.154 0.5-0.171 0.603-0.063 2.274-0.508 2.769-0.168 0.49 0.337 0.193 1.701 0.168 2.172z"></path>
<path fill="#d1b380" style="fill: var(--color28, #d1b380)" opacity="0.7" d="M10.527 1.744c0.088 0.437 0.564 0.768 1.074 0.845 0.51 0.074 1.034-0.069 1.479-0.297 0.473-0.245 0.917-0.602 1.469-0.622 0.102-0.003 0.207 0.006 0.295 0.046 0.098 0.046 0.168 0.128 0.225 0.211 0.315 0.457 0.361 1.010 0.4 1.538 0.168-0.46 0.303-0.928 0.398-1.404 0.105-0.519 0.134-1.127-0.305-1.49-0.334-0.277-0.849-0.325-1.313-0.277-0.651 0.069-1.278 0.303-1.784 0.662-0.2 0.143-0.383 0.305-0.603 0.431-0.217 0.123-0.481 0.208-0.739 0.168-0.283-0.046-0.339-0.248-0.537-0.363-0.081 0.16-0.093 0.374-0.059 0.551z"></path>
<path fill="#f2d6c9" style="fill: var(--color27, #f2d6c9)" opacity="0.7" d="M16.405 9.185c-0.181-0.388-0.447-0.705-0.671-1.059s-0.412-0.771-0.393-1.21c0.020-0.44 0.315-0.885 0.69-0.882 0.156 0 0.302 0.074 0.442 0.157 0.451 0.265 0.864 0.628 1.203 1.068 0.132 0.171 0.254 0.354 0.339 0.562 0.125 0.305 0.159 0.651 0.19 0.988 0.054 0.594 0.098 1.196-0.012 1.778-0.159 0.831-0.666 1.573-1.337 1.907-0.144 0.071-0.364 0.194-0.5 0.103-0.146-0.097-0.173-0.32-0.141-0.488 0.083-0.462 0.354-0.845 0.415-1.336 0.061-0.539 0-1.105-0.224-1.587z"></path>
<path fill="#f2d6c9" style="fill: var(--color27, #f2d6c9)" opacity="0.7" d="M15.622 12.433c-0.029 0.023-0.059 0.049-0.081 0.080-0.054 0.080-0.056 0.188-0.056 0.291 0 0.163 0.015 0.354 0.134 0.437 0.054 0.037 0.12 0.043 0.183 0.046 0.066 0.003 0.132 0.009 0.198 0.011 0.071 0.006 0.146 0.009 0.205-0.037 0.061-0.046 0.088-0.131 0.112-0.211 0.058-0.197 0.117-0.391 0.176-0.588 0.010-0.034 0.020-0.071 0.007-0.103-0.007-0.020-0.024-0.034-0.039-0.046-0.139-0.126-0.205-0.188-0.383-0.143-0.149 0.037-0.349 0.137-0.456 0.263z"></path>
<path fill="#000" style="fill: var(--color1, #000)" opacity="0.7" d="M16.937 29.967c-0.088-0.094-0.217-0.109-0.334-0.117-0.176-0.014-0.351-0.031-0.527-0.046-0.076-0.006-0.156-0.014-0.217-0.066-0.024-0.020-0.044-0.049-0.061-0.077-0.056 0-0.11-0.003-0.166-0.003-0.203-0.006-0.405 0.083-0.603 0.154 0.041 0.203 0.080 0.403 0.122 0.605 0.007 0.040 0.017 0.083 0.044 0.108s0.066 0.029 0.103 0.029c0.585 0.017 1.174-0.009 1.757-0.074 0.005-0.186 0-0.394-0.117-0.514z"></path>
<path fill="#000" style="fill: var(--color1, #000)" opacity="0.7" d="M12.896 29.785c0.010 0.271 0.017 0.557-0.090 0.799-0.076 0.171-0.202 0.3-0.327 0.428-0.066 0.066-0.129 0.131-0.195 0.2-0.017 0.017-0.037 0.037-0.059 0.046-0.024 0.009-0.051 0.009-0.076 0.006-0.112-0.006-0.222 0.006-0.334-0.003-0.11-0.011-0.224-0.049-0.303-0.143s-0.102-0.254-0.034-0.357c0.044-0.066 0.117-0.097 0.181-0.134 0.193-0.103 0.359-0.271 0.471-0.479 0.071-0.131 0.137-0.268 0.266-0.323 0.049-0.020 0.5-0.080 0.5-0.040z"></path>
<path fill="#7f7f7f" style="fill: var(--color29, #7f7f7f)" opacity="0.7" d="M16.837 11.865c-0.027-0.066-0.056-0.131-0.102-0.177-0.061-0.057-0.144-0.060-0.22-0.063-1.359-0.051-2.72-0.106-4.079-0.157-0.11-0.006-0.21 0.077-0.256 0.203-0.22 0.605-0.481 1.113-0.647 1.744-0.022 0.086 0.029 0.171 0.102 0.174 1.835 0.029 3.765 0.26 5.597 0.080 0.124-0.011 0.2-0.177 0.146-0.317-0.183-0.485-0.361-1.053-0.542-1.487z"></path>
<path fill="#666" style="fill: var(--color25, #666)" opacity="0.7" d="M16.801 11.725c-0.027-0.066-0.054-0.131-0.102-0.177-0.061-0.057-0.142-0.060-0.215-0.063-1.335-0.051-2.669-0.106-4.001-0.157-0.107-0.006-0.207 0.077-0.251 0.203-0.217 0.605-0.473 1.113-0.634 1.744-0.022 0.086 0.029 0.171 0.1 0.174 1.801 0.029 3.694 0.26 5.492 0.080 0.122-0.011 0.195-0.177 0.144-0.317-0.178-0.485-0.354-1.053-0.532-1.487z"></path>
<path fill="#f0f0f0" style="fill: var(--color30, #f0f0f0)" opacity="0.7" d="M16.589 11.854c-0.024-0.046-0.049-0.094-0.093-0.126-0.054-0.040-0.127-0.043-0.195-0.046-1.203-0.037-2.406-0.077-3.609-0.114-0.098-0.003-0.185 0.054-0.227 0.146-0.195 0.434-0.427 0.799-0.571 1.253-0.020 0.060 0.027 0.123 0.090 0.126 1.625 0.020 3.333 0.188 4.953 0.057 0.11-0.009 0.178-0.128 0.129-0.228-0.159-0.348-0.317-0.756-0.478-1.068z"></path>
<path fill="#e0c74e" style="fill: var(--color31, #e0c74e)" opacity="0.7" d="M15.004 11.979c-0.007 0.011-0.005 0.026-0.002 0.040 0.049 0.328 0.098 0.662 0.205 0.97 0.322 0 0.644 0 0.966 0.003 0.102 0 0.205 0 0.302-0.023-0.107-0.325-0.217-0.651-0.324-0.976-0.368 0.011-0.737 0.003-1.103-0.026-0.017-0.003-0.034-0.003-0.044 0.011z"></path>
<path fill="#cacaca" style="fill: var(--color32, #cacaca)" opacity="0.7" d="M14.6 11.945c-0.593 0.037-1.181 0.026-1.774 0-0.046-0.003-0.046 0.080 0 0.086 0.59 0.051 1.183 0.043 1.774 0.009 0.051-0.003 0.054-0.097 0-0.094z"></path>
<path fill="#cacaca" style="fill: var(--color32, #cacaca)" opacity="0.7" d="M14.66 12.21c-0.581-0.003-1.161 0.017-1.74 0.054-0.044 0.003-0.044 0.083 0 0.080 0.581-0.031 1.159-0.040 1.74-0.037 0.054 0 0.054-0.097 0-0.097z"></path>
<path fill="#cacaca" style="fill: var(--color32, #cacaca)" opacity="0.7" d="M14.66 12.544c-0.61-0.031-1.222-0.037-1.832-0.034-0.046 0-0.046 0.083 0 0.083 0.612 0.011 1.222 0.034 1.832 0.051 0.054 0 0.054-0.097 0-0.1z"></path>
<path fill="#cacaca" style="fill: var(--color32, #cacaca)" opacity="0.7" d="M14.497 12.798c-0.542-0.006-1.086 0.006-1.63 0.011-0.046 0-0.046 0.083 0 0.083 0.542 0.006 1.086 0.017 1.63 0.011 0.058 0 0.058-0.103 0-0.106z"></path>
<path fill="#f2d6c9" style="fill: var(--color27, #f2d6c9)" opacity="0.7" d="M12.252 12.447c0.1 0.011 0.203 0.023 0.303 0 0.083-0.017 0.163-0.057 0.232-0.114 0.107-0.088 0.188-0.231 0.195-0.385 0.005-0.154-0.078-0.314-0.205-0.357-0.059-0.020-0.12-0.014-0.181 0-0.268 0.054-0.512 0.234-0.783 0.257-0.1 0.009-0.212-0-0.283 0.080-0.039 0.046-0.059 0.108-0.068 0.174-0.010 0.069-0.012 0.146 0.017 0.206 0.056 0.117 0.22 0.080 0.317 0.088 0.151 0.017 0.303 0.034 0.456 0.051z"></path>
<path fill="#f2d6c9" style="fill: var(--color27, #f2d6c9)" opacity="0.7" d="M10.471 6.967c-0.449 0.394-0.815 0.905-1.164 1.419-0.322 0.477-0.642 0.976-0.8 1.556s-0.132 1.262 0.19 1.738c0.327 0.482 0.873 0.659 1.391 0.776 0.205 0.046 0.415 0.088 0.625 0.071 0.232-0.017 0.605 0.034 0.827-0.051 0.12-0.046 0.12-0.18 0.21-0.283s0.11-0.325 0.046-0.451c-0.376-0.029-0.751-0.074-1.125-0.137-0.31-0.051-0.647-0.134-0.847-0.414-0.217-0.303-0.203-0.768-0.041-1.116s0.442-0.597 0.732-0.799c0.29-0.203 0.6-0.371 0.869-0.611 0.459-0.411 2.391-2.044 1.842-2.734-0.439-0.542-2.376 0.702-2.755 1.036z"></path>
<path fill="#fcee9f" style="fill: var(--color26, #fcee9f)" opacity="0.7" d="M18.271 8.077c0.022-0.163-0.073-0.314-0.161-0.442-0.193-0.28-0.386-0.562-0.581-0.842-0.093-0.134-0.186-0.271-0.3-0.383-0.227-0.223-0.52-0.328-0.803-0.425-0.324-0.111-0.703-0.206-0.976 0.026-0.188 0.16-0.273 0.442-0.273 0.714s0.076 0.531 0.159 0.785c0.122 0.377 0.254 0.768 0.427 1.116 0.144 0.294 0.305 0.271 0.549 0.143 0.637-0.334 1.266-0.594 1.959-0.691z"></path>
<path fill="#fcee9f" style="fill: var(--color26, #fcee9f)" opacity="0.7" d="M10.808 7.743c0.21 0.391 0.468 0.742 0.727 1.090 0.020 0.029 0.044 0.057 0.076 0.057 0.024 0 0.046-0.017 0.063-0.034 0.203-0.183 0.339-0.442 0.515-0.659 0.349-0.428 0.851-0.679 1.127-1.173 0.156-0.283 0.224-0.631 0.19-0.965-0.012-0.117-0.039-0.237-0.102-0.325-0.090-0.128-0.239-0.18-0.381-0.18-0.202 0-0.398 0.083-0.586 0.168-0.534 0.243-1.061 0.511-1.579 0.802-0.127 0.071-0.256 0.146-0.383 0.22-0.166 0.1-0.207 0.097-0.1 0.268 0.154 0.237 0.295 0.474 0.432 0.731z"></path>
<path fill="#000" style="fill: var(--color1, #000)" opacity="0.7" d="M26.882 31.842c0.468 0 0.947-0.006 1.393-0.174 0.034-0.123-0.029-0.263-0.122-0.337s-0.205-0.097-0.317-0.114c-0.376-0.057-0.756-0.071-1.137-0.086-1.476-0.051-2.955-0.103-4.433-0.114-0.186-0.003-0.959 0.057-0.739 0.497 0.146 0.294 0.832 0.191 1.071 0.205 0.91 0.051 1.82 0.086 2.733 0.106 0.517 0.012 1.034 0.017 1.552 0.017z"></path>
<path fill="#000" style="fill: var(--color1, #000)" opacity="0.7" d="M26.882 31.843c0.468 0 0.947-0.006 1.393-0.174 0.034-0.123-0.029-0.263-0.122-0.337s-0.205-0.097-0.317-0.114c-0.376-0.057-0.756-0.071-1.137-0.086-1.476-0.051-2.955-0.102-4.433-0.114-0.186-0.003-0.959 0.057-0.739 0.497 0.146 0.294 0.832 0.191 1.071 0.206 0.91 0.051 1.82 0.086 2.733 0.105 0.517 0.012 1.034 0.017 1.552 0.017z"></path>
<path fill="#97a8b2" style="fill: var(--color33, #97a8b2)" opacity="0.7" d="M28.085 14.36c0 0 0.083-1.53-2.286-1.421-0.047 0.003-0.090 0.003-0.134 0.006-0.017 0.011-0.032 0.020-0.049 0.031-0.034 0.103-0.064 0.206-0.085 0.311-0.007 0.029-0.012 0.074-0.020 0.117-0.017 0.166-0.012 0.091 0 0 0.003-0.034 0.007-0.077 0.012-0.131-0.007 0.069-0.019 0.137-0.027 0.203-0.073 0.611-0.056 1.227-0.102 1.838-0.039 0.522-0.129 1.045-0.227 1.561 0.093-0.006 0.198-0.003 0.256 0.023 0.12 0.051 0.176 12.725-0.029 13.512l0.942 0.012c0.002 0.003 1.827-13.013 1.749-16.062z"></path>
<path fill="#eaddd0" style="fill: var(--color10, #eaddd0)" opacity="0.7" d="M25.499 7.244c-0.276-0.046-0.568 0.123-0.703 0.408-0.085 0.183-0.107 0.397-0.129 0.605-0.078 0.739-0.178 1.476-0.298 2.209-0.081 0.497-0.090 1.484-0.69 1.533-0.225 0.020-0.456-0.18-0.678-0.22-0.364-0.069-0.705-0.091-1.057-0.24-0.283-0.12-0.471-0.297-0.683-0.537-0.127-0.146-0.305-0.434-0.476-0.488-0.122-0.040-0.276 0.126-0.2 0.243-0.151-0.106-0.369 0.063-0.376 0.271-0.015 0.397 0.654 0.622 0.891 0.793 0.366 0.268 0.727 0.551 1.125 0.751 0.627 0.314 1.306 0.491 1.986 0.505 0.12 0.003 0.246-0.003 0.349-0.074 0.22-0.157 0.337-0.525 0.505-0.754 0.154-0.211 0.237-0.351 0.307-0.625 0.195-0.754 0.363-1.527 0.49-2.301 0.12-0.651 0.532-1.927-0.364-2.081z"></path>
<path fill="#97a8b2" style="fill: var(--color33, #97a8b2)" opacity="0.7" d="M22.737 18.909c0.015 0.488 0.044 0.976 0.071 1.464 0.041 0.731 0.083 1.461 0.122 2.192 0.012 0.234 0.032 0.483 0.154 0.668 0.012 0.020 0.027 0.037 0.047 0.046 0.066 0.029 0.117-0.069 0.139-0.145 0.261-0.919 0.647-1.787 1.142-2.563 0.127-0.197 0.263-0.394 0.446-0.517 0.137-0.091 0.293-0.14 0.449-0.186 0.307-0.091 0.617-0.183 0.925-0.274 0.181-0.054 0.368-0.111 0.51-0.251 0.112-0.111 0.186-0.265 0.256-0.417 0.361-0.762 0.725-1.533 0.908-2.378 0.134-0.617 0.168-1.256 0.159-1.89 0-0.063-0.002-0.128-0.022-0.186-0.027-0.080-0.085-0.143-0.146-0.191-0.232-0.18-0.527-0.203-0.805-0.217-1.056-0.054-2.137-0.080-3.172 0.208-0.32 0.088-0.861 0.18-1.017 0.577-0.19 0.485-0.132 1.239-0.154 1.764-0.032 0.762-0.037 1.53-0.010 2.295z"></path>
<path fill="#97a8b2" style="fill: var(--color33, #97a8b2)" opacity="0.7" d="M24.897 18.062c-0.591-0.094-1.183-0.186-1.774-0.28-0.029-0.088 0.117 0.003 0.107 0.094-0.31 2.891-0.19 5.829 0.056 8.737 0.107 1.253 0.115 2.512 0.003 3.762 0.244 0.032 0.664 0.074 0.905 0.106 0.449-3.896 0.72-7.804 1.169-11.7 0.022-0.197 0.037-0.425-0.093-0.568-0.095-0.106-0.239-0.131-0.373-0.151z"></path>
<path fill="#eaddd0" style="fill: var(--color10, #eaddd0)" opacity="0.7" d="M24.128 5.303c0.354-0.014 0.715-0.294 1.095-0.385-0.1-0.36 0.020-0.748 0.051-1.125 0.044-0.511-0.078-1.019-0.205-1.507-0.102-0.394-0.217-0.802-0.459-1.105-0.049-0.060-0.105-0.117-0.171-0.137-0.058-0.017-0.12-0.006-0.178 0.003-0.417 0.074-1.576 0.131-1.686 0.679-0.151 0.751 0.29 1.747 0.539 2.412 0.117 0.314 0.237 0.634 0.442 0.876 0.186 0.226 0.378 0.297 0.571 0.288z"></path>
<path fill="#e8e8e8" style="fill: var(--color34, #e8e8e8)" opacity="0.7" d="M28.173 16.047l0.007-0.009c0.005-0.006 0.007-0.011 0.012-0.014 0.010-0.017 0.019-0.031 0.029-0.049 0.124-0.223 0.232-0.457 0.342-0.688 0.205-2.7-0.056-5.426-0.781-8.081-0.227-0.833-0.451-1.753-1.303-2.323-0.044-0.029-0.090-0.057-0.144-0.069-0.071-0.014-0.144 0.009-0.212 0.029-0.459 0.137-0.917 0.274-1.379 0.414-0.090 0.029-0.183 0.054-0.276 0.080-0.098 0.026-0.195 0.048-0.295 0.066-0.171 0.029-0.842 0.217-0.866 0.405-0.058 0.482-0.112 0.965-0.159 1.45-0.117 1.196-0.205 2.389-0.202 3.588 0.002 1.196-0.090 2.389-0.259 3.574-0.012 0.091-0.073 0.574-0.146 1.068 0.005 0.009 0.007 0.017 0.012 0.026 0.058 0.131 0.122 0.257 0.193 0.38 0.007 0.011 0.019 0.031 0.032 0.054 0.007 0.009 0.012 0.017 0.017 0.023 0.078 0.106 0.166 0.205 0.256 0.3 0.007 0.009 0.019 0.020 0.034 0.037-0.124-0.137 0.007 0.003 0.044 0.031 0.095 0.074 0.193 0.143 0.293 0.203 0.025 0.014 0.127 0.066 0.137 0.071s0.022 0.009 0.032 0.014c1.439-0.071 2.876-0.188 4.304-0.357 0.088-0.083 0.183-0.166 0.278-0.223z"></path>
<path fill="#97a8b2" style="fill: var(--color33, #97a8b2)" opacity="0.7" d="M23.352 30.267c-0.015 0-0.029 0-0.044 0.003-0.020 0.006-0.032 0.020-0.044 0.031-0.051 0.060-0.090 0.126-0.112 0.197-0.019 0.066-0.024 0.137-0.066 0.194-0.046 0.065-0.132 0.105-0.217 0.137-0.217 0.083-0.452 0.14-0.688 0.166-0.054 0.006-0.107 0.011-0.156 0.029-0.137 0.054-0.171 0.194-0.188 0.317-0.005 0.034-0.007 0.077 0.029 0.097 0.020 0.011 0.044 0.011 0.068 0.011 0.683-0.003 0.974-0.003 1.654-0.003 0.166 0 0.339-0.006 0.5-0.040 0.022-0.006 0.044-0.008 0.061-0.023s0.025-0.034 0.032-0.054c0.090-0.274 0.1-0.574 0.081-0.856-0.007-0.088-0.019-0.16-0.139-0.18-0.171-0.029 0.017-0.006-0.156-0.011-0.202-0.003-0.41-0.009-0.615-0.014z"></path>
<path fill="#333" style="fill: var(--color4, #333)" opacity="0.7" d="M26.301 2.483c0.002-0.245-0.12-0.468-0.222-0.682-0.171-0.357-0.307-0.742-0.517-1.070s-0.52-0.602-0.871-0.614c-0.146-0.006-0.29 0.034-0.432 0.074-0.605 0.171-1.215 0.345-1.766 0.682-0.068 0.043-0.139 0.089-0.183 0.166-0.039 0.066-0.051 0.148-0.063 0.228-0.017 0.111-0.034 0.226-0.051 0.337-0.010 0.071-0.022 0.143-0.010 0.211 0.037 0.214 0.252 0.308 0.439 0.323 0.185 0.011 0.368-0.017 0.551-0.049 0.175-0.029 0.59-0.2 0.732-0.014 0.071 0.091 0.049 0.245 0.098 0.354 0.059 0.134 0.168 0.214 0.241 0.334 0.076 0.111 0.129 0.265 0.073 0.391 0.102-0.071 0.229-0.094 0.346-0.060 0.041 0.011 0.083 0.031 0.11 0.069 0.051 0.074 0.029 0.188-0.027 0.257s-0.137 0.1-0.215 0.128c0.332 0.374 0.454 0.982 0.3 1.493 0.254-0.031 0.466-0.237 0.642-0.454 0.159-0.197 0.305-0.411 0.405-0.654 0.047-0.114 0.083-0.231 0.12-0.348 0.071-0.234 0.144-0.471 0.215-0.705 0.044-0.131 0.083-0.263 0.085-0.397z"></path>
<path fill="#97a8b2" style="fill: var(--color33, #97a8b2)" opacity="0.7" d="M25.471 30.293c-0.015 0-0.029 0-0.044 0.003-0.020 0.006-0.032 0.020-0.044 0.031-0.051 0.060-0.090 0.126-0.112 0.197-0.020 0.066-0.024 0.137-0.066 0.194-0.047 0.066-0.132 0.106-0.217 0.137-0.217 0.083-0.451 0.14-0.688 0.166-0.054 0.006-0.107 0.011-0.156 0.029-0.137 0.054-0.171 0.194-0.188 0.317-0.005 0.034-0.007 0.077 0.029 0.097 0.020 0.011 0.044 0.011 0.068 0.011 0.683-0.003 0.974-0.003 1.654-0.003 0.166 0 0.339-0.006 0.5-0.040 0.022-0.006 0.044-0.009 0.061-0.023s0.024-0.034 0.032-0.054c0.090-0.274 0.1-0.574 0.081-0.856-0.007-0.088-0.019-0.16-0.139-0.18-0.171-0.029 0.017-0.006-0.156-0.011-0.205-0.003-0.41-0.009-0.615-0.014z"></path>
<path fill="#c7b299" style="fill: var(--color35, #c7b299)" opacity="0.7" d="M20.722 11.26c-0.071 0.166-0.151 0.328-0.239 0.482-0.012 0.023-0.027 0.046-0.049 0.051-0.022 0.009-0.046-0.006-0.066-0.017-0.237-0.137-0.471-0.274-0.708-0.408 0.056-0.651 0.025-1.439 0.186-2.058 0.022-0.088 1.183 0.148 1.261 0.397 0.076 0.245-0.139 0.836-0.21 1.073-0.049 0.163-0.107 0.323-0.176 0.48z"></path>
<path fill="#534741" style="fill: var(--color36, #534741)" opacity="0.7" d="M19.77 9.379c0.034 0.009 0.069 0.011 0.102 0.014 0.073 0.009 0.144 0.026 0.215 0.043 0.349 0.094 0.688 0.231 1.022 0.38 0.022 0.009 0.044 0.020 0.069 0.017 0.037-0.006 0.063-0.046 0.073-0.086 0.010-0.043 0.005-0.086 0-0.128 0-0.009-0.002-0.017-0.007-0.023s-0.010-0.009-0.017-0.011c-0.017-0.009-0.034-0.017-0.051-0.023-0.078-0.034-0.159-0.063-0.239-0.088-0.349-0.114-0.7-0.22-1.052-0.317-0.017-0.006-0.039-0.009-0.054 0.003-0.027 0.023-0.041 0.080-0.049 0.114-0.012 0.029-0.051 0.097-0.012 0.106z"></path>
<path fill="#5b8c87" style="fill: var(--color37, #5b8c87)" opacity="0.7" d="M19.752 10.543l1.044 0.531 0.21-0.645-1.254-0.597v0.711z"></path>
<path fill="#333" style="fill: var(--color4, #333)" opacity="0.7" d="M23.671 3.228c-0.005-0.026-0.032-0.051-0.058-0.049-0.261 0.031-0.517 0.1-0.769 0.174-0.088 0.026-0.049 0.177 0.037 0.148 0.227-0.068 0.459-0.12 0.686-0.18 0.029 0.137 0.054 0.277 0.068 0.42 0.007 0.063 0.010 0.126 0.010 0.188 0.002 0.114-0.144 0.123-0.207 0.137-0.078 0.017-0.156 0.023-0.234 0.026-0.115 0.006-0.122-0.054-0.166-0.143-0.066-0.134-0.117-0.274-0.163-0.417-0.015-0.046-0.076-0.026-0.066 0.020 0.051 0.205 0.117 0.414 0.215 0.599 0.071 0.134 0.334 0.051 0.442 0.034 0.12-0.020 0.273-0.051 0.288-0.211 0.027-0.243-0.027-0.511-0.081-0.748z"></path>
<path fill="#333" style="fill: var(--color4, #333)" opacity="0.7" d="M24.295 2.959c-0.225 0.1-0.439 0.251-0.654 0.377-0.041 0.023-0.012 0.103 0.032 0.086 0.227-0.088 0.471-0.163 0.688-0.28 0.088-0.046 0.024-0.223-0.066-0.183z"></path>
<path fill="#eaddd0" style="fill: var(--color10, #eaddd0)" opacity="0.7" d="M26.238 7.264c-0.088-0.394-0.454-1.216-0.839-0.625-0.117 0.18-0.146 0.42-0.168 0.645-0.188 1.818-0.378 3.634-0.566 5.452-0.098 0.948-0.205 1.927-0.625 2.743-0.068 0.131-0.144 0.26-0.175 0.408-0.034 0.148-0.015 0.323 0.085 0.422-0.137 0.2-0.025 0.634 0.227 0.611 0.054-0.006 0.103-0.031 0.146-0.069 0.251-0.203 0.188-0.579 0.246-0.893 0.078-0.428 0.19-0.845 0.303-1.259 0.429-1.601 0.968-3.163 1.256-4.798 0.151-0.873 0.303-1.778 0.11-2.637z"></path>
<path fill="#6087a2" style="fill: var(--color38, #6087a2)" opacity="0.7" d="M25.261 6.282c-0.098 0.026-0.198 0.054-0.271 0.131-0.095 0.1-0.127 0.257-0.154 0.402-0.293 1.644-0.515 3.305-0.666 4.978 0.483 0.143 0.969 0.285 1.452 0.428 0.615-1.564 0.89-3.308 0.793-5.024-0.017-0.305-0.061-0.645-0.263-0.839-0.244-0.225-0.591-0.157-0.891-0.077z"></path>
<path fill="#000" style="fill: var(--color1, #000)" opacity="0.7" d="M5.269 31.6c0.49-0.017 0.981-0.037 1.469-0.080 0.237-0.020 0.481-0.049 0.695-0.168 0.117-0.066 0.237-0.211 0.183-0.348-0.044-0.114-0.176-0.131-0.285-0.131-1.769-0.003-3.54-0.006-5.307 0.131-0.32 0.026-0.683 0.083-0.866 0.391-0.224 0.382 0.447 0.274 0.586 0.277 0.388 0.006 0.776 0.006 1.161 0 0.79-0.011 1.576-0.040 2.364-0.071z"></path>
<path fill="#000" style="fill: var(--color1, #000)" opacity="0.7" d="M5.27 31.6c0.49-0.017 0.981-0.037 1.469-0.080 0.237-0.020 0.481-0.049 0.695-0.168 0.117-0.066 0.237-0.211 0.183-0.348-0.044-0.114-0.176-0.132-0.285-0.132-1.769-0.003-3.54-0.006-5.307 0.132-0.32 0.026-0.683 0.083-0.866 0.391-0.224 0.382 0.446 0.274 0.586 0.277 0.388 0.006 0.776 0.006 1.161 0 0.791-0.011 1.576-0.040 2.364-0.071z"></path>
<path fill="#fff" style="fill: var(--color24, #fff)" opacity="0.7" d="M8.853 11.029c0.046 0.049 0.093 0.094 0.151 0.114 0.081 0.026 0.166-0.006 0.244-0.037 0.054-0.020 0.105-0.043 0.159-0.063 0.020-0.009 0.041-0.017 0.054-0.040s0.010-0.049 0.007-0.077c-0.051-0.577-0.144-1.147-0.281-1.704-0.217 0.117-0.432 0.234-0.649 0.351-0.117 0.063-0.51 0.188-0.517 0.354-0.007 0.168 0.271 0.442 0.361 0.557 0.149 0.191 0.305 0.374 0.471 0.545z"></path>
<path fill="#333" style="fill: var(--color4, #333)" opacity="0.7" d="M8.952 9.116c0.063-0.031 0.132-0.063 0.203-0.051 0.068 0.011 0.137 0.083 0.127 0.163-0.007 0.057-0.266 0.194-0.312 0.225-0.112 0.077-0.227 0.148-0.344 0.217s-0.237 0.131-0.356 0.191c-0.066 0.034-0.21 0.14-0.288 0.108-0.285-0.117 0.212-0.437 0.298-0.494 0.217-0.137 0.444-0.248 0.673-0.36z"></path>
<path fill="#998675" style="fill: var(--color39, #998675)" opacity="0.7" d="M6.435 30.615c-0.105 0.008-0.212 0.017-0.315-0.014s-0.2-0.114-0.232-0.231c-0.027-0.1-0.015-0.231-0.088-0.288-0.017-0.014-0.037-0.020-0.059-0.023-0.010-2.092 0.034-3.3 0.022-5.434 0.090-0.711 0.037-1.37 0.022-2.058-0.044-2.172-0.085-4.344-0.129-6.516-0.005-0.288-0.015-0.588-0.137-0.856-0.198-0.434-0.637-0.679-1.049-0.868-1.225-0.559-2.611-1.359-2.947 0.44-0.090 0.477-0.163 0.956-0.224 1.441-0.044 0.345-0.078 0.705 0.029 1.047 0.183 0.582 0.522 2.012 0.952 2.435 1.12 1.102 1.608 2.346 1.976 3.808-0.115 0.488 0.019 1.179 0.071 1.556 0.239 1.807 0.732 3.488 0.974 5.295-0.102 0.223-0.146 0.482-0.117 0.733 0.005 0.051 0.015 0.103 0.044 0.14 0.041 0.054 0.11 0.066 0.171 0.071 0.173 0.014 0.346 0.020 0.52 0.017 0.134-0.003 0.278-0.017 0.381-0.12 0.134-0.132 0.141-0.366 0.137-0.574z"></path>
<path fill="#998675" style="fill: var(--color39, #998675)" opacity="0.7" d="M4.975 18.259c-0.344-0.888-1.603-1.484-2.791-0.471-0.71 0.605-0.171 1.279-0.015 1.878 0.19 0.728 0.317 1.479 0.376 2.241 0.115 1.47-0.015 2.994-0.39 4.521-0.249 1.016-0.254 2.129-0.427 3.143-0.095 0.568-0.398 1.322-0.327 1.887 0.268 0.003 0.537 0.006 0.803 0.008 0.237 0.003 0.488 0 0.686-0.151s0.295-0.511 0.129-0.708c-0.163 0.063-0.337 0.125-0.505 0.080-0.739-0.205 0.227-2.161 0.368-2.592 0.603-1.838 1.205-3.676 1.642-5.515 0.322-1.344 0.925-3.108 0.451-4.322z"></path>
<path fill="#acb18f" style="fill: var(--color40, #acb18f)" opacity="0.7" d="M5.201 8.46c0.293 0.842 0.586 1.681 0.878 2.523 0.080 0.231 0.161 0.477 0.122 0.719-0.068 0.431-0.471 0.662-0.834 0.759-0.72-1.196-1.479-2.361-2.272-3.491-0.451-0.642-1.154-2.126-0.117-2.575 1.176-0.505 1.874 1.059 2.223 2.064z"></path>
<path fill="#acb18f" style="fill: var(--color40, #acb18f)" opacity="0.7" d="M7.84 7.181c0.095-0.166 0.232-0.091 0.351 0.051-0.334 1.416-0.632 2.843-0.893 4.279-0.080 0.445-0.183 0.936-0.508 1.193-0.137 0.108-0.303 0.163-0.466 0.194-0.295 0.060-0.651 0.029-0.817-0.263-0.237-0.417 0.056-0.822 0.29-1.113 0.276-0.34 0.393-0.559 0.564-1.022 0.393-1.068 0.925-2.349 1.479-3.32z"></path>
<path fill="#f2d6c9" style="fill: var(--color27, #f2d6c9)" opacity="0.7" d="M8.398 7.115c0.027-0.040 0.041-0.088 0.059-0.137 0.041-0.123 0.083-0.248 0.124-0.371 0.020-0.057 0.039-0.114 0.041-0.174s-0.012-0.126-0.051-0.166c-0.037-0.037-0.088-0.046-0.137-0.034s-0.088 0.043-0.127 0.077c-0.085 0.077-0.156 0.177-0.205 0.291-0.039 0.091-0.063 0.191-0.124 0.263-0.027 0.031-0.059 0.057-0.083 0.094-0.037 0.054-0.044 0.131-0.022 0.194 0.080 0.208 0.432 0.106 0.525-0.037z"></path>
<path fill="#ebefeb" style="fill: var(--color41, #ebefeb)" opacity="0.7" d="M6.492 18.556c-0.122-3.054-0.393-6.1-0.747-9.134-0.129-1.113-0.285-2.438-1.281-2.957-0.922-0.482-2.059-0.605-2.659 0.479-0.337 0.608-0.412 1.344-0.483 2.058-0.425 4.364-0.849 8.729-1.274 13.093 0.466 0.031 6.043 0.999 6.068 0.591 0-0.006 0-0.011 0-0.014 0.037-0.003 0.071-0.011 0.102-0.028 0.124-0.066 0.161-0.24 0.183-0.391 0.163-1.222 0.139-2.463 0.090-3.696z"></path>
<path fill="#f2d6c9" style="fill: var(--color27, #f2d6c9)" opacity="0.7" d="M8.211 10.552c0.012-0.031 0.022-0.066 0.039-0.094 0.037-0.060 0.1-0.083 0.163-0.091 0.061-0.009 0.124-0.003 0.185-0.014 0.19-0.040 0.346-0.26 0.537-0.226 0.059 0.011 0.112 0.046 0.161 0.086 0.063 0.054 0.122 0.126 0.139 0.214 0.024 0.14-0.061 0.274-0.139 0.382-0.044 0.060-0.090 0.123-0.149 0.16-0.049 0.031-0.105 0.043-0.161 0.057-0.134 0.037-0.268 0.094-0.376 0.203-0.088 0.088-0.161 0.211-0.271 0.243-0.2 0.057-0.388-0.2-0.41-0.411-0.027-0.217 0.212-0.328 0.281-0.508z"></path>
<path fill="#acb18f" style="fill: var(--color40, #acb18f)" opacity="0.7" d="M8.345 11.303c-0.088-0.206-0.176-0.411-0.261-0.617-0.276 0.054-0.483 0.311-0.681 0.539-0.273 0.317-0.568 0.608-0.883 0.871-0.185 0.154-0.398 0.303-0.622 0.263-0.273-0.049-0.449-0.36-0.59-0.639-0.527-1.053-1.054-2.109-1.581-3.163-0.417-0.833-0.883-0.528-1.183 0.22-0.271 0.682 0.078 1.45 0.346 2.067 0.346 0.796 0.73 1.57 1.149 2.321 0.246 0.44 0.542 0.902 0.981 1.019 0.21 0.057 0.434 0.026 0.642-0.046 0.671-0.223 1.203-0.808 1.698-1.384 0.32-0.374 0.637-0.756 0.947-1.142 0.034-0.043 0.071-0.088 0.078-0.148 0.005-0.051-0.017-0.108-0.039-0.16z"></path>
<path fill="#f2d6c9" style="fill: var(--color27, #f2d6c9)" opacity="0.7" d="M5.355 2.263c-0.11-0.382-0.283-0.853-0.637-0.953-0.383-0.106-0.925 0.188-1.203 0.474-0.344 0.351-0.559 0.848-0.678 1.362-0.132 0.559-0.154 1.182 0.061 1.707s0.705 0.919 1.196 0.833c0.329-0.057 0.61-0.311 0.825-0.608 0.551-0.762 0.708-1.872 0.437-2.814z"></path>
<path fill="#534741" style="fill: var(--color36, #534741)" opacity="0.7" d="M3.708 3.699c-0.11-0.225-0.442-0.214-0.539 0.017-0.073 0.171 0.19 0.868 0.229 1.082 0.102 0.568-0.42 4.444-0.285 5.006-0.783 0.020-1.574-0.080-2.32-0.36-0.076-0.029-0.156-0.063-0.21-0.134-0.068-0.094-0.071-0.231-0.066-0.354 0.059-1.838 1.508-8.095 3.457-8.041 0.239 0.006 0.476 0.069 0.71 0.134 0.154 0.043 0.307 0.091 0.447 0.183 0.283 0.191 0.459 0.554 0.529 0.928 0.073 0.374 0.054 0.762 0.037 1.142-0.005 0.117-1.174-0.003-1.286-0.023-0.127-0.023-0.364-0.14-0.49-0.077-0.146 0.071-0.163 0.343-0.212 0.497z"></path>
<path fill="#fff" style="fill: var(--color24, #fff)" opacity="0.13299999999999998" d="M2.005 15.727c-0.337-0.077-0.644-0.268-0.944-0.46 0.049-0.171 0.098-0.343 0.144-0.514 1.376 0.579 2.94 0.528 4.287-0.14 0.022 0.271 0.041 0.542 0.063 0.813-0.366 0.091-0.739 0.126-1.11 0.163-0.507 0.049-1.013 0.097-1.52 0.148-0.305 0.029-0.617 0.057-0.92-0.011z"></path>
</symbol>
<symbol id="icon-Illustration---pavan-704" viewBox="0 0 15 32">
<path fill="#000" style="fill: var(--color1, #000)" opacity="0.7" d="M12.34 31.89c0.917 0.009 1.961-0.023 2.547-0.528 0.136-0.119 0.241-0.267 0.22-0.421-0.046-0.331-0.6-0.473-1.056-0.528-2.651-0.319-5.363-0.194-8.049-0.070-1.677 0.078-3.371 0.159-4.969 0.528-0.832 0.191-1.494 0.693-0.444 0.914 1.018 0.215 2.579 0.009 3.646 0.020 2.7 0.029 5.404 0.058 8.104 0.084z"></path>
<path fill="#000" style="fill: var(--color1, #000)" opacity="0.7" d="M12.34 31.89c0.917 0.009 1.961-0.023 2.547-0.528 0.136-0.119 0.241-0.267 0.22-0.421-0.046-0.331-0.6-0.473-1.056-0.528-2.651-0.319-5.363-0.194-8.049-0.070-1.677 0.078-3.371 0.159-4.969 0.528-0.832 0.191-1.494 0.693-0.444 0.914 1.018 0.215 2.579 0.009 3.646 0.020 2.7 0.029 5.404 0.058 8.104 0.084z"></path>
<path fill="#f0dcce" style="fill: var(--color42, #f0dcce)" opacity="0.7" d="M5.317 11.304c0.012 0.348-0.014 0.69 0.003 1.038 0.003 0.061 0.009 0.125 0.041 0.177 0.049 0.084 0.151 0.116 0.244 0.139 0.986 0.249 2.010 0.328 3.022 0.232 0.209-0.020 0.455-0.075 0.534-0.281 0.061-0.162-0.012-0.342-0.075-0.502-0.305-0.772-0.075-1.52 0.055-2.341-0.801-0.012-1.923-0.11-2.721-0.064-0.197 0.012-0.638-0.043-0.832-0.012-0.22 0.038-0.18 0.145-0.218 0.377-0.067 0.392-0.070 0.653-0.052 1.236z"></path>
<path fill="#d9924e" style="fill: var(--color43, #d9924e)" opacity="0.7" d="M5.332 5.448c-0.249 0.278-0.339 0.658-0.421 1.024-0.278 1.25-0.557 2.5-0.835 3.751-0.038 0.168-0.075 0.336-0.131 0.499-0.125 0.363-0.342 0.737-0.235 1.105 0.078 0.267 0.342 0.47 0.621 0.479 0.055 0.003 0.113-0.006 0.162-0.029 0.119-0.058 0.165-0.2 0.197-0.328 0.31-1.143 0.656-2.277 1.094-3.379 0.229-0.574 0.484-1.143 0.592-1.749 0.073-0.406 0.168-1.102-0.055-1.482-0.209-0.363-0.774-0.131-0.989 0.11z"></path>
<path fill="#441a19" style="fill: var(--color44, #441a19)" opacity="0.7" d="M9.744 12.929c-0.157-0.302-0.177-0.476-0.482-0.624-0.2-0.096-0.316-0.012-0.537-0.026-0.667-0.043-1.476-0.067-2.144-0.064-0.403 0.003-1.157 0.044-1.36 0.392-0.084 0.145-0.45 0.798-0.467 0.966-0.165 1.694 0.043 2.129 0.023 4.041-0.009 0.986 0.151 2.347 0.165 3.333 0.020 1.308 0.302 2.808 0.334 4.116 0.014 0.65 0.041 1.039-0.017 1.688-0.032 0.354-0.136 0.479 0.203 0.595 0.084 0.029 0.27 0.061 0.299-0.026 0.264-0.789 0.218-1.381 0.316-2.207 0.345-2.976 0.954-5.543 0.983-8.536l0.339 0.003c-0.026 1.885 0.299 3.661 0.357 5.546 0.049 1.514 0.122 3.025 0.226 4.537 0.014 0.2 0.032 0.415 0.154 0.577s0.383 0.232 0.525 0.087c0.116-1.897 0.235-3.797 0.519-5.676 0.183-1.201 0.432-2.39 0.551-3.6 0.072-0.751 0.168-1.674 0.191-2.428 0.014-0.528 0.014-0.528 0-1.314-0.003-0.339 0.099-0.838-0.18-1.378z"></path>
<path fill="#d9924e" style="fill: var(--color43, #d9924e)" opacity="0.7" d="M10.068 6.446c-0.038-0.267-0.096-0.537-0.241-0.763-0.165-0.255-0.424-0.432-0.682-0.589-0.2-0.122-0.418-0.241-0.653-0.255-0.212-0.014-0.421 0.058-0.624 0.119-0.566 0.168-1.088 0.191-1.668 0.128-0.47-0.052-0.58 0.423-0.705 0.801-0.363 1.105-0.058 2.306-0.116 3.466-0.009 0.177-0.029 0.354-0.052 0.528l3.878 0.113c0.023-1.050 1.009-2.515 0.861-3.547z"></path>
<path fill="#2b2b2b" style="fill: var(--color45, #2b2b2b)" opacity="0.7" d="M4.761 29.938c-0.035-0.003-0.072-0.003-0.104 0.015-0.038 0.020-0.055 0.064-0.072 0.102-0.218 0.502-0.716 0.879-1.259 0.914-0.545 0.038-1.105-0.293-1.305-0.801-0.084-0.215-0.107-0.45-0.145-0.679-0.052-0.325-0.139-0.647-0.154-0.975-0.014-0.331 0.052-0.679 0.27-0.925 0.116 0.354 0.281 0.693 0.49 1.004 0.119 0.177 0.258 0.348 0.441 0.453 0.122 0.070 0.258 0.107 0.394 0.145 0.299 0.081 0.595 0.163 0.893 0.244 0.328 0.090 0.661 0.18 1.001 0.183 0.136 0.003 0.629 0.096 0.371 0.304-0.18 0.136-0.621 0.029-0.821 0.017z"></path>
<path fill="#dbdbdb" style="fill: var(--color46, #dbdbdb)" opacity="0.7" d="M8.001 12.526c-0.090-0.142-0.223-0.29-0.392-0.284-0.084 0.003-0.165 0.044-0.244 0.073-0.203 0.075-0.426 0.078-0.644 0.084-0.458 0.009-0.92 0.017-1.378 0.026-0.119 0.003-0.241 0.006-0.342 0.070-0.122 0.078-0.18 0.241-0.136 0.38 0.009 0.026 0.023 0.052 0.043 0.073 0.026 0.026 0.064 0.035 0.102 0.046 0.261 0.067 0.531 0.096 0.801 0.087 0.215-0.006 0.426-0.035 0.638-0.067l1.607-0.313c0.009-0.064-0.023-0.122-0.055-0.174z"></path>
<path fill="#2b2b2b" style="fill: var(--color45, #2b2b2b)" opacity="0.7" d="M8.804 30.159c0.093 0.287 0.22 0.571 0.444 0.771 0.273 0.241 0.661 0.328 1.021 0.279s0.693-0.223 0.983-0.444c0.194-0.151 0.374-0.325 0.505-0.534 0.194-0.313 0.27-0.685 0.319-1.050 0.078-0.603 0.093-1.238-0.157-1.795-0.247-0.557-0.812-1.007-1.418-0.954-0.589 0.049-1.54 0.58-1.732 1.178-0.261 0.809-0.223 1.743 0.035 2.55z"></path>
<path fill="#d9d9d9" style="fill: var(--color47, #d9d9d9)" opacity="0.7" d="M9.964 28.215c-0.009-0.22-0.012-0.441 0.017-0.661 0.026-0.186 0.075-0.377 0.194-0.522 0.183-0.223 0.484-0.305 0.772-0.331 0.067-0.006 0.136-0.009 0.2 0.015 0.067 0.023 0.122 0.072 0.174 0.122 0.122 0.11 0.244 0.223 0.336 0.357 0.099 0.145 0.162 0.316 0.212 0.484 0.16 0.548 0.189 1.134 0.087 1.697l-0.020 0.102c-0.072 0.226-0.125 0.371-0.238 0.583-0.090 0.168-0.197 0.334-0.351 0.447s-0.438-0.017-0.612-0.096c-0.104-0.047-0.183-0.134-0.252-0.223-0.421-0.548-0.493-1.279-0.519-1.973z"></path>
<path fill="#2b2b2b" style="fill: var(--color45, #2b2b2b)" opacity="0.7" d="M10.726 28.186c0.020-0.070 0.043-0.139 0.096-0.191 0.107-0.107 0.305-0.072 0.412 0.038s0.145 0.267 0.171 0.418c0.046 0.281 0.052 0.589-0.093 0.835-0.061 0.104-0.168 0.203-0.29 0.191-0.151-0.015-0.235-0.18-0.287-0.322-0.049-0.128-0.099-0.258-0.125-0.395-0.043-0.206 0.055-0.377 0.116-0.574z"></path>
<path fill="#e5e5e5" style="fill: var(--color48, #e5e5e5)" opacity="0.7" d="M2.28 26.617c0.136-0.104 0.293-0.174 0.453-0.232 0.299-0.11 0.624-0.183 0.934-0.11 0.363 0.087 0.653 0.363 0.876 0.661 0.142 0.191 0.273 0.406 0.473 0.534 0.113 0.072 0.261 0.11 0.394 0.093 0.27 0.087 0.624 0.061 0.838 0.061 0.38 0 0.766-0.026 1.146 0 0.276 0.020 0.54 0.075 0.818 0.035 0.017-0.003 0.032-0.006 0.044-0.012 0.235-0.032 0.316-0.325 0.394-0.551 0.090-0.261 0.249-0.499 0.458-0.685 0.252-0.223 0.589-0.351 0.925-0.366 0.273-0.012 0.769 0.058 0.922 0.319-0.397 0.229-0.876 0.368-1.291 0.574-0.238 0.116-0.479 0.247-0.644 0.45-0.168 0.209-0.244 0.473-0.316 0.731-0.102 0.366-0.203 0.743-0.151 1.117 0.006 0.044 0.014 0.096-0.012 0.134-0.020 0.032-0.061 0.046-0.099 0.058-0.212 0.067-0.426 0.104-0.644 0.142-0.505 0.090-1.012 0.183-1.517 0.273-0.107 0.020-0.215 0.038-0.322 0.032-0.148-0.009-0.287-0.064-0.426-0.107-0.322-0.099-0.658-0.136-0.992-0.18-0.531-0.070-1.065-0.165-1.546-0.397s-0.911-0.618-1.085-1.123c-0.18-0.502-0.058-1.125 0.368-1.45z"></path>
<path fill="#2b2b2b" style="fill: var(--color45, #2b2b2b)" opacity="0.7" d="M7.592 28.032c-0.278 0.197-0.525 0.444-0.824 0.612-0.044 0.023-0.087 0.046-0.119 0.084-0.096 0.11-0.029 0.293 0.093 0.371s0.276 0.081 0.418 0.081c0.284 0 0.571 0.003 0.856 0.003 0.11 0 0.241-0.009 0.296-0.104 0.041-0.067 0.026-0.151 0.017-0.229-0.020-0.168-0.014-0.339 0.014-0.505 0.017-0.090 0.041-0.18 0.072-0.267 0.020-0.058 0.116-0.191 0.113-0.249-0.029-0.311-0.812 0.116-0.937 0.203z"></path>
<path fill="#2b2b2b" style="fill: var(--color45, #2b2b2b)" opacity="0.7" d="M5.222 28.644c-0.038 0.084-0.081 0.171-0.154 0.229-0.087 0.070-0.206 0.090-0.319 0.104-0.493 0.061-0.992 0.052-1.482-0.017-0.078-0.012-0.177-0.041-0.191-0.119-0.014-0.075 0.058-0.136 0.125-0.18 0.383-0.247 0.777-0.479 1.172-0.711 0.131-0.075 0.261-0.151 0.403-0.197 0.157-0.049 0.629-0.157 0.714 0.049 0.075 0.183-0.189 0.67-0.267 0.841z"></path>
<path fill="#2b2b2b" style="fill: var(--color45, #2b2b2b)" opacity="0.7" d="M7.543 29.396c-0.307 0.038-0.615 0.078-0.917 0.154-0.090 0.023-0.186 0.052-0.255 0.113-0.072 0.061-0.116 0.165-0.081 0.252 0.055 0.139 0.247 0.148 0.394 0.133 0.569-0.055 1.137-0.11 1.706-0.168 0.070-0.006 0.148-0.017 0.2-0.064 0.067-0.061 0.075-0.165 0.064-0.255-0.035-0.299-0.104-0.293-0.374-0.258-0.244 0.032-0.49 0.061-0.737 0.093z"></path>
<path fill="#2b2b2b" style="fill: var(--color45, #2b2b2b)" opacity="0.7" d="M8.372 10.962c-0.154 0.003-0.296 0.078-0.409 0.18-0.113 0.104-0.194 0.235-0.264 0.368-0.035 0.070-0.070 0.139-0.087 0.215-0.020 0.078-0.023 0.162-0.014 0.244 0.046 0.453 0.455 0.827 0.905 0.89 0.119 0.017 0.249 0.012 0.351-0.049 0.072-0.043 0.125-0.113 0.165-0.183 0.191-0.322 0.189-0.708 0.052-1.050-0.116-0.293-0.348-0.624-0.699-0.615z"></path>
<path fill="#2b2b2b" style="fill: var(--color45, #2b2b2b)" opacity="0.7" d="M6.136 12.253c0.125-0.061 0.238-0.154 0.299-0.278 0.041-0.084 0.055-0.177 0.064-0.273 0.012-0.165-0.012-0.357-0.145-0.453-0.11-0.081-0.267-0.070-0.392-0.012s-0.223 0.157-0.325 0.249c-0.255 0.235-0.534 0.444-0.847 0.592-0.27 0.128-0.56 0.206-0.832 0.328-0.107 0.049-0.215 0.107-0.29 0.197-0.073 0.087-0.11 0.203-0.093 0.313s0.090 0.215 0.194 0.258c0.049 0.020 0.104 0.029 0.16 0.032 0.293 0.020 0.592-0.043 0.847-0.189 0.18-0.099 0.336-0.235 0.513-0.334 0.151-0.084 0.316-0.142 0.45-0.255 0.113-0.099 0.261-0.11 0.397-0.177z"></path>
<path fill="#404040" style="fill: var(--color3, #404040)" opacity="0.7" d="M5.316 25.877c-0.029-0.003-0.061-0.009-0.087 0.003-0.078 0.026-0.087 0.133-0.084 0.215 0.009 0.313-0.009 0.627-0.055 0.934-0.017 0.116-0.041 0.235-0.104 0.334-0.064 0.096-0.162 0.162-0.255 0.232-0.212 0.157-0.403 0.334-0.574 0.531-0.061 0.073-0.122 0.148-0.145 0.241-0.038 0.157 0.046 0.328 0.18 0.424 0.131 0.096 0.299 0.13 0.461 0.136 0.078 0.003 0.162 0 0.235-0.029 0.081-0.035 0.145-0.104 0.206-0.171 0.191-0.215 0.386-0.429 0.577-0.644 0.119-0.131 0.238-0.267 0.319-0.424 0.191-0.38 0.122-0.815 0.104-1.221-0.006-0.157 0.055-0.386-0.070-0.47-0.142-0.093-0.537-0.067-0.708-0.090z"></path>
<path fill="#d9d9d9" style="fill: var(--color47, #d9d9d9)" opacity="0.7" d="M6.689 18.556c0.078 1.088 0.055 2.199 0.073 3.289 0.020 1.163-0.090 2.32-0.2 3.478-0.078 0.833-0.302 2.436-0.38 3.269-0.014 0.145-0.029 0.296-0.104 0.421-0.072 0.125-0.223 0.22-0.365 0.18-0.218-0.061-0.252-0.351-0.241-0.58 0.133-2.567 0.278-5.79 0.412-8.357 0.023-0.464 0.026-0.853 0.003-1.317-0.023-0.438 0.020-0.899 0.012-1.497-0.032-2.144 0.116-2.706 0.444-4.76 0.029-0.189 0.067-0.389 0.206-0.519 0.412-0.389 0.557 0.255 0.429 0.551-0.215 0.496-0.258 0.96-0.31 1.508-0.116 1.273-0.073 0.937-0.064 2.219 0.012 0.708 0.038 1.41 0.087 2.115z"></path>
<path fill="#404040" style="fill: var(--color3, #404040)" opacity="0.7" d="M8.818 25.842c0.032 0.136 0.017 0.281 0.003 0.421-0.087 0.801-0.174 1.598-0.261 2.399-0.009 0.081-0.020 0.168-0.075 0.232-0.046 0.055-0.119 0.078-0.189 0.099-0.206 0.064-0.429 0.119-0.635 0.058s-0.38-0.287-0.307-0.49c0.041-0.11 0.139-0.189 0.212-0.281 0.18-0.229 0.194-0.542 0.2-0.832 0.012-0.45-0.055-0.978 0.032-1.416 0.044-0.209 0.107-0.191 0.307-0.174 0.241 0.017 0.476 0.020 0.714-0.015z"></path>
<path fill="#f0dcce" style="fill: var(--color42, #f0dcce)" opacity="0.7" d="M4.042 12.824c0.006 0.194 0.067 0.406 0.235 0.508 0.189 0.116 0.432 0.046 0.629-0.049 0.041-0.020 0.081-0.041 0.119-0.072 0.113-0.096 0.142-0.255 0.157-0.403 0.006-0.049 0.009-0.099-0.006-0.145-0.026-0.081-0.107-0.133-0.145-0.212-0.070-0.148 0.032-0.357-0.084-0.47-0.061-0.061-0.16-0.064-0.244-0.055-0.174 0.017-0.345 0.067-0.505 0.145-0.238 0.116-0.162 0.528-0.157 0.754z"></path>
<path fill="#f0dcce" style="fill: var(--color42, #f0dcce)" opacity="0.7" d="M8.268 11.597c0.206 0.113 0.412 0.229 0.609 0.36 0.084 0.058 0.168 0.119 0.267 0.145s0.215 0.012 0.284-0.064c0.067-0.075 0.067-0.191 0.029-0.281-0.038-0.093-0.107-0.165-0.177-0.238-0.203-0.212-0.409-0.426-0.673-0.557-0.133-0.067-0.287-0.11-0.435-0.093-0.197 0.023-0.49 0.232-0.487 0.458 0 0.206 0.394 0.165 0.583 0.27z"></path>
<path fill="#d9924e" style="fill: var(--color43, #d9924e)" opacity="0.7" d="M9.208 5.376c0.16 0.041 0.287 0.162 0.397 0.281 0.154 0.165 0.299 0.345 0.415 0.54 0.203 0.345 0.313 0.734 0.424 1.12 0.209 0.74 0.418 1.479 0.627 2.219 0.058 0.2 0.113 0.409 0.078 0.615-0.049 0.273-0.249 0.487-0.444 0.687-0.203 0.209-0.409 0.418-0.612 0.627-0.125 0.128-0.252 0.258-0.412 0.339s-0.36 0.104-0.516 0.012c-0.206-0.119-0.264-0.403-0.194-0.632 0.070-0.226 0.241-0.406 0.412-0.571s0.351-0.328 0.458-0.54c0.154-0.31 0.128-0.685 0.014-1.012s-0.299-0.624-0.464-0.928c-0.313-0.586-0.537-1.218-0.664-1.868-0.061-0.325-0.058-1.027 0.482-0.888z"></path>
<path fill="#d7c68e" style="fill: var(--color49, #d7c68e)" opacity="0.7" d="M6.463 5.001c-0.11 0.113-0.267 0.171-0.4 0.258-0.284 0.191-0.455 0.542-0.423 0.885 0.012 0.131 0.049 0.267 0 0.389-0.049 0.125-0.183 0.218-0.186 0.354s0.131 0.235 0.261 0.27c0.252 0.067 0.528-0.023 0.725-0.194s0.319-0.412 0.394-0.661c0.032-0.104 0.058-0.218 0.128-0.302 0.119-0.151 0.334-0.183 0.487-0.299 0.168-0.125 0.249-0.342 0.258-0.551 0.012-0.209-0.041-0.418-0.096-0.621-0.026-0.099-0.055-0.2-0.133-0.264-0.075-0.058-0.177-0.067-0.273-0.070-0.157-0.009-0.319-0.014-0.461 0.052-0.368 0.174-0.046 0.513-0.281 0.754z"></path>
<path fill="#f0dcce" style="fill: var(--color42, #f0dcce)" opacity="0.7" d="M5.941 3.003c0.113 0.513 0.261 1.056 0.658 1.398 0.29 0.249 0.693 0.357 1.070 0.284 0.374-0.073 0.711-0.322 0.888-0.658 0.084-0.16 0.133-0.336 0.174-0.513 0.131-0.58 0.177-1.181 0.131-1.772-0.017-0.209-0.049-0.429-0.197-0.577-0.151-0.151-0.38-0.186-0.592-0.212-0.435-0.052-0.879-0.107-1.311-0.017-0.36 0.073-0.841 0.305-0.998 0.67-0.165 0.377 0.087 1.001 0.177 1.398z"></path>
<path fill="#d7c68e" style="fill: var(--color49, #d7c68e)" opacity="0.7" d="M5.584 1.602c0.035-0.203 0.096-0.406 0.2-0.586 0.244-0.423 0.705-0.682 1.178-0.806 0.667-0.177 1.407-0.113 2.007 0.232 0.6 0.342 1.038 0.978 1.091 1.665 0.032 0.409-0.070 0.818-0.197 1.21-0.093 0.281-0.191 0.615-0.017 0.856 0.2 0.278 0.69 0.31 0.772 0.644 0.078 0.328-0.339 0.629-0.247 0.954 0.041 0.148 0.177 0.244 0.264 0.371 0.186 0.278 0.078 0.69-0.189 0.89s-0.65 0.206-0.954 0.064c-0.102-0.046-0.197-0.11-0.264-0.194-0.116-0.145-0.148-0.339-0.148-0.525 0.003-0.464 0.168-0.957-0.032-1.375-0.157-0.328-0.531-0.58-0.511-0.943 0.014-0.261 0.244-0.493 0.2-0.751-0.035-0.206-0.226-0.339-0.339-0.513-0.16-0.244-0.157-0.554-0.212-0.841s-0.223-0.6-0.513-0.632c-0.229-0.026-0.444 0.133-0.673 0.133-0.128 0-0.252-0.049-0.38-0.070-0.128-0.017-0.278 0.009-0.345 0.119-0.043 0.070-0.041 0.16-0.035 0.241 0.012 0.229 0.020 0.458 0.032 0.687 0.012 0.267 0.012 0.569-0.177 0.76-0.029 0.029-0.064 0.058-0.070 0.096-0.006 0.032 0.006 0.064 0.017 0.093 0.041 0.102 0.154 0.267 0.084 0.371-0.261-0.215-0.412-0.693-0.49-1.012-0.046-0.189-0.073-0.38-0.081-0.574-0.017-0.189 0.041-0.383 0.029-0.563z"></path>
</symbol>
<symbol id="icon-ant-design_send-outlined" viewBox="0 0 32 32">
<path d="M29.106 15.591l-26.141-13.106c-0.106-0.053-0.228-0.066-0.344-0.038-0.266 0.066-0.431 0.334-0.366 0.603l2.694 11.006c0.041 0.166 0.162 0.3 0.325 0.353l4.616 1.584-4.612 1.584c-0.162 0.056-0.284 0.187-0.322 0.353l-2.7 11.022c-0.028 0.116-0.016 0.237 0.038 0.341 0.122 0.247 0.422 0.347 0.672 0.225l26.141-13.031c0.097-0.047 0.175-0.128 0.225-0.222 0.122-0.25 0.022-0.55-0.225-0.675zM5.338 25.822l1.572-6.425 9.225-3.166c0.072-0.025 0.131-0.081 0.156-0.156 0.044-0.131-0.025-0.272-0.156-0.319l-9.225-3.162-1.566-6.4 19.625 9.841-19.631 9.787z"></path>
</symbol>
<symbol id="icon-Frame" viewBox="0 0 32 32">
<path d="M4 5.333h24v2.667h-24v-2.667zM4 14.667h24v2.667h-24v-2.667zM4 24h24v2.667h-24v-2.667z"></path>
</symbol>
<symbol id="icon-Vector" viewBox="0 0 32 32">
<path d="M16 12.648l11.733-11.733 3.352 3.352-11.733 11.733 11.733 11.733-3.352 3.352-11.733-11.733-11.733 11.733-3.352-3.352 11.733-11.733-11.733-11.733 3.352-3.352 11.733 11.733z"></path>
</symbol>
<symbol id="icon-akar-icons_facebook-fill" viewBox="0 0 32 32">
<path d="M0 16.089c0 7.955 5.777 14.569 13.333 15.911v-11.556h-4v-4.444h4v-3.556c0-4 2.577-6.221 6.223-6.221 1.155 0 2.4 0.177 3.555 0.355v4.089h-2.044c-1.956 0-2.4 0.977-2.4 2.223v3.111h4.267l-0.711 4.444h-3.556v11.556c7.556-1.341 13.333-7.955 13.333-15.911 0-8.849-7.2-16.089-16-16.089s-16 7.24-16 16.089z"></path>
</symbol>
<symbol id="icon-lucide_twitter" viewBox="0 0 32 32">
<path stroke-linejoin="round" stroke-linecap="round" stroke-miterlimit="4" stroke-width="2.6667" d="M32 5.344c0 0-1.027 2.799-2.933 4.531 2.347 13.327-13.787 23.056-26.4 15.459 3.227 0.133 6.453-0.8 8.8-2.665-7.333-1.999-11-9.862-7.333-15.992 3.227 3.465 8.213 5.464 13.2 5.331-1.32-5.597 5.867-8.796 10.267-5.064 1.613 0 4.4-1.599 4.4-1.599z"></path>
</symbol>
<symbol id="icon-akar-icons_instagram-fill" viewBox="0 0 32 32">
<path d="M9.953 1.421c1.564-0.072 2.063-0.088 6.047-0.088s4.483 0.017 6.045 0.088c1.563 0.071 2.629 0.32 3.563 0.681 0.977 0.369 1.864 0.947 2.597 1.693 0.747 0.732 1.323 1.617 1.691 2.596 0.363 0.933 0.611 2 0.683 3.56 0.072 1.567 0.088 2.065 0.088 6.048 0 3.984-0.017 4.483-0.088 6.047-0.071 1.56-0.32 2.627-0.683 3.56-0.368 0.979-0.945 1.866-1.691 2.599-0.733 0.747-1.62 1.323-2.597 1.691-0.933 0.363-2 0.611-3.56 0.683-1.565 0.072-2.064 0.088-6.048 0.088s-4.483-0.017-6.047-0.088c-1.56-0.071-2.627-0.32-3.56-0.683-0.979-0.368-1.866-0.945-2.599-1.691-0.746-0.732-1.324-1.619-1.692-2.597-0.361-0.933-0.609-2-0.681-3.56-0.072-1.567-0.088-2.065-0.088-6.048 0-3.984 0.017-4.483 0.088-6.045s0.32-2.629 0.681-3.563c0.369-0.979 0.947-1.865 1.693-2.597 0.732-0.746 1.618-1.323 2.596-1.692 0.933-0.361 2-0.609 3.56-0.681h0.001zM21.927 4.061c-1.547-0.071-2.011-0.085-5.927-0.085s-4.38 0.015-5.927 0.085c-1.431 0.065-2.207 0.304-2.724 0.505-0.684 0.267-1.173 0.583-1.687 1.096-0.487 0.473-0.861 1.050-1.096 1.687-0.201 0.517-0.44 1.293-0.505 2.724-0.071 1.547-0.085 2.011-0.085 5.927s0.015 4.38 0.085 5.927c0.065 1.431 0.304 2.207 0.505 2.724 0.235 0.636 0.609 1.213 1.096 1.687 0.473 0.487 1.051 0.861 1.687 1.096 0.517 0.201 1.293 0.44 2.724 0.505 1.547 0.071 2.009 0.085 5.927 0.085s4.38-0.015 5.927-0.085c1.431-0.065 2.207-0.304 2.724-0.505 0.684-0.267 1.173-0.583 1.687-1.096 0.487-0.473 0.861-1.051 1.096-1.687 0.201-0.517 0.44-1.293 0.505-2.724 0.071-1.547 0.085-2.011 0.085-5.927s-0.015-4.38-0.085-5.927c-0.065-1.431-0.304-2.207-0.505-2.724-0.267-0.684-0.583-1.173-1.096-1.687-0.473-0.487-1.050-0.861-1.687-1.096-0.517-0.201-1.293-0.44-2.724-0.505zM14.127 20.521c1.046 0.435 2.211 0.494 3.296 0.166s2.022-1.022 2.652-1.965c0.63-0.942 0.913-2.074 0.801-3.201s-0.612-2.181-1.415-2.981c-0.512-0.511-1.13-0.903-1.812-1.146s-1.408-0.333-2.128-0.262-1.415 0.301-2.036 0.673c-0.62 0.372-1.151 0.877-1.553 1.478s-0.665 1.285-0.772 2c-0.106 0.715-0.053 1.446 0.157 2.138s0.571 1.329 1.056 1.866c0.486 0.536 1.084 0.958 1.752 1.235zM10.669 10.669c0.7-0.7 1.531-1.255 2.446-1.634s1.895-0.574 2.885-0.574c0.99 0 1.97 0.195 2.885 0.574s1.746 0.934 2.446 1.634c0.7 0.7 1.255 1.531 1.634 2.446s0.574 1.895 0.574 2.885-0.195 1.97-0.574 2.885c-0.379 0.915-0.934 1.746-1.634 2.446-1.414 1.414-3.331 2.208-5.331 2.208s-3.917-0.794-5.331-2.208c-1.414-1.414-2.208-3.331-2.208-5.331s0.794-3.917 2.208-5.331zM25.211 9.584c0.173-0.164 0.312-0.36 0.408-0.579s0.147-0.454 0.151-0.692c0.003-0.238-0.041-0.475-0.131-0.696s-0.223-0.422-0.391-0.59c-0.169-0.169-0.369-0.302-0.59-0.391s-0.458-0.134-0.696-0.131c-0.239 0.003-0.474 0.055-0.692 0.151s-0.415 0.235-0.579 0.408c-0.318 0.337-0.493 0.785-0.486 1.249s0.194 0.907 0.522 1.235c0.328 0.328 0.771 0.515 1.235 0.522s0.912-0.167 1.249-0.486z"></path>
</symbol>
<symbol id="icon-simple-line-icons_social-youtube" viewBox="0 0 32 32">
<path d="M29.384 5.513c-0.866-0.65-3.279-1.513-13.392-1.513-10.837 0-12.445 0.991-12.961 1.316-2.746 1.72-3.007 9.332-3.031 10.876 0.033 2.039 0.349 8.822 3.029 10.5 0.515 0.323 2.114 1.309 12.963 1.309 10.119 0 12.53-0.859 13.392-1.506 2.341-1.755 2.61-7.799 2.616-10.329-0.006-2.035-0.211-8.846-2.616-10.652l-0-0zM28.217 24.804c-0.348 0.261-2.347 1.114-12.226 1.114-9.55 0-11.554-0.773-11.933-1.011-0.964-0.603-1.981-3.803-2.061-8.721 0.079-4.907 1.11-8.49 2.063-9.085 0.38-0.239 2.391-1.018 11.931-1.018 9.871 0 11.875 0.858 12.225 1.12 0.856 0.642 1.772 4.024 1.785 8.969-0.013 5.022-0.936 7.995-1.785 8.632h0zM22.506 15.181l-8.988-5.749c-0.152-0.095-0.325-0.147-0.502-0.149s-0.351 0.044-0.505 0.134c-0.154 0.091-0.283 0.222-0.372 0.382s-0.136 0.341-0.137 0.525v11.5c0 0.276 0.105 0.541 0.293 0.736s0.441 0.305 0.706 0.305c0.182 0 0.36-0.052 0.516-0.149l8.989-5.751c0.3-0.189 0.483-0.527 0.483-0.892s-0.183-0.704-0.482-0.892h-0zM14.001 19.979v-7.812l6.056 3.906-6.056 3.907z"></path>
</symbol>
<symbol id="icon-arcticons_phone" viewBox="0 0 32 32">
<path stroke-linejoin="round" stroke-linecap="round" stroke-miterlimit="4" stroke-width="1.3333" d="M27.147 20.187c-1.412-0.174-2.814-0.421-4.2-0.74-0.339-0.113-0.7-0.137-1.051-0.069s-0.677 0.225-0.949 0.456c-0.353 0.36-1.373 1.367-2.433 2.407-3.798-1.867-6.869-4.941-8.733-8.74 1.033-1.060 2-2.073 2.393-2.427 0.231-0.272 0.388-0.599 0.456-0.949s0.044-0.712-0.069-1.051c-0.319-1.389-0.566-2.793-0.74-4.207-0.019-0.18-0.074-0.354-0.162-0.513s-0.208-0.297-0.351-0.407c-0.143-0.11-0.308-0.19-0.483-0.235s-0.358-0.053-0.537-0.025h-5.68c-0.234 0.021-0.454 0.124-0.62 0.291s-0.267 0.387-0.287 0.622c-0.367 5.127 2.493 10.613 3.073 11.667v0.040l0.080 0.153c2.076 3.601 5.066 6.591 8.667 8.667v0l0.293 0.167c1.333 0.707 6.633 3.373 11.587 3.007 0.237-0.016 0.46-0.117 0.63-0.283s0.275-0.387 0.297-0.624v-5.673c0.028-0.179 0.019-0.361-0.025-0.537s-0.125-0.34-0.235-0.483-0.249-0.263-0.407-0.351c-0.158-0.088-0.333-0.143-0.513-0.162z"></path>
</symbol>
<symbol id="icon-arcticons_spike-email" viewBox="0 0 32 32">
<path stroke-linejoin="round" stroke-linecap="round" stroke-miterlimit="4" stroke-width="1.3333" d="M25.148 27.035c0.356-0.296 0.698-0.608 1.025-0.937M23.879 16c-0.002-1.972-0.744-3.872-2.079-5.323s-3.166-2.348-5.131-2.514c-1.965-0.166-3.921 0.412-5.48 1.62s-2.609 2.956-2.94 4.9c-0.332 1.944 0.078 3.941 1.149 5.598s2.724 2.85 4.632 3.346c1.909 0.495 3.934 0.257 5.675-0.669s3.071-2.472 3.727-4.332c0.297-0.843 0.449-1.731 0.449-2.625h-0.001z"></path>
<path stroke-linejoin="round" stroke-linecap="round" stroke-miterlimit="4" stroke-width="1.3333" d="M30.333 16c0.004-2.223-0.509-4.416-1.499-6.406s-2.428-3.723-4.203-5.061c-1.774-1.339-3.836-2.246-6.021-2.651s-4.435-0.296-6.571 0.318c-2.136 0.614-4.1 1.716-5.737 3.22s-2.901 3.367-3.694 5.444c-0.793 2.076-1.091 4.309-0.873 6.521s0.948 4.343 2.132 6.224l-0.889 5.413 5.413-0.889c1.949 1.228 4.166 1.967 6.462 2.154s4.603-0.183 6.725-1.079"></path>
<path stroke-linejoin="round" stroke-linecap="round" stroke-miterlimit="4" stroke-width="1.3333" d="M23.43 18.624c-0.963 2.348 0.605 3.611 1.953 3.918 1.645 0.373 4.95-1.346 4.95-6.542"></path>
</symbol>
<symbol id="icon-arcticons_map" viewBox="0 0 32 32">
<path stroke-linejoin="round" stroke-linecap="round" stroke-miterlimit="4" stroke-width="1.3333" d="M16 3c-2.62 0-5.133 1.041-6.986 2.894s-2.894 4.366-2.894 6.986v0 0.72c0.4 5.413 4.893 9.767 9.88 15.4 5.207-5.88 9.88-10.333 9.88-16.12 0-2.62-1.041-5.133-2.894-6.986s-4.366-2.894-6.986-2.894zM16 8.133c0.94 0 1.86 0.279 2.641 0.802s1.391 1.265 1.751 2.134c0.36 0.869 0.453 1.825 0.269 2.747s-0.637 1.769-1.303 2.434c-0.665 0.665-1.513 1.117-2.435 1.299s-1.878 0.088-2.747-0.273c-0.868-0.361-1.61-0.971-2.132-1.754s-0.799-1.702-0.798-2.643c0.002-1.26 0.503-2.467 1.395-3.357s2.099-1.39 3.359-1.39z"></path>
</symbol>
<symbol id="icon-ep_arrow-right" viewBox="0 0 30 32">
<path d="M20.014 27.334c0.164-0.179 0.255-0.418 0.255-0.668s-0.092-0.489-0.255-0.668l-9.137-9.998 9.137-9.996c0.164-0.179 0.255-0.418 0.255-0.668s-0.092-0.489-0.255-0.668c-0.079-0.087-0.174-0.156-0.279-0.204s-0.218-0.072-0.332-0.072c-0.114 0-0.227 0.024-0.332 0.072s-0.2 0.117-0.279 0.204l-9.716 10.634c-0.171 0.187-0.266 0.437-0.266 0.698s0.095 0.511 0.266 0.698l9.716 10.634c0.079 0.087 0.174 0.156 0.279 0.204s0.218 0.072 0.332 0.072c0.114 0 0.227-0.024 0.332-0.072s0.2-0.116 0.279-0.204v0.002z"></path>
</symbol>
<symbol id="icon-ep_arrow-right1" viewBox="0 0 30 32">
<path d="M9.986 4.666c-0.164 0.179-0.255 0.418-0.255 0.668s0.092 0.489 0.255 0.668l9.137 9.998-9.137 9.996c-0.164 0.179-0.255 0.418-0.255 0.668s0.092 0.489 0.255 0.668c0.079 0.087 0.175 0.156 0.28 0.204s0.218 0.072 0.332 0.072c0.114 0 0.227-0.024 0.332-0.072s0.2-0.116 0.28-0.204l9.716-10.634c0.171-0.187 0.266-0.437 0.266-0.698s-0.096-0.511-0.266-0.698l-9.716-10.634c-0.079-0.087-0.175-0.156-0.28-0.204s-0.218-0.072-0.332-0.072c-0.114 0-0.227 0.024-0.332 0.072s-0.2 0.116-0.28 0.204v-0.002z"></path>
</symbol>
<symbol id="icon-elipse" viewBox="0 0 189 32">
<path fill="#c4c4c4" style="fill: var(--color50, #c4c4c4)" d="M32 16c0 8.837-7.163 16-16 16s-16-7.163-16-16c0-8.837 7.163-16 16-16s16 7.163 16 16z"></path>
<path fill="#c4c4c4" style="fill: var(--color50, #c4c4c4); stroke: var(--color51, #7e6d53)" stroke="#7e6d53" stroke-linejoin="miter" stroke-linecap="butt" stroke-miterlimit="4" stroke-width="2.9091" d="M109.091 16c0 8.033-6.512 14.545-14.545 14.545s-14.545-6.512-14.545-14.545c0-8.033 6.512-14.545 14.545-14.545s14.545 6.512 14.545 14.545z"></path>
<path fill="#c4c4c4" style="fill: var(--color50, #c4c4c4)" d="M189.091 16c0 8.837-7.163 16-16 16s-16-7.163-16-16c0-8.837 7.163-16 16-16s16 7.163 16 16z"></path>
</symbol>
<symbol id="icon-Frame-99" viewBox="0 0 32 32">
<path stroke-linejoin="round" stroke-linecap="round" stroke-miterlimit="4" stroke-width="2" d="M20.667 30h-9.333M20.667 30v-13.067c0-0.247-0.098-0.485-0.273-0.66s-0.412-0.273-0.66-0.273h-7.467c-0.248 0-0.485 0.098-0.66 0.273s-0.273 0.413-0.273 0.66v13.067M20.667 30h8.4c0.247 0 0.485-0.098 0.66-0.273s0.273-0.412 0.273-0.66v-3.578c0-0.248-0.098-0.485-0.273-0.66s-0.412-0.273-0.66-0.273h-7.467c-0.247 0-0.485 0.098-0.66 0.273s-0.273 0.413-0.273 0.66v4.511zM11.333 30v-7.623c0-0.248-0.098-0.485-0.273-0.66s-0.412-0.273-0.66-0.273h-7.467c-0.248 0-0.485 0.098-0.66 0.273s-0.273 0.412-0.273 0.66v6.689c0 0.248 0.098 0.485 0.273 0.66s0.412 0.273 0.66 0.273h8.4zM14.143 5.286l1.414-2.998c0.038-0.086 0.1-0.159 0.179-0.21s0.171-0.078 0.264-0.078c0.094 0 0.186 0.027 0.264 0.078s0.141 0.124 0.179 0.21l1.416 2.998 3.161 0.484c0.406 0.062 0.568 0.585 0.274 0.884l-2.287 2.333 0.54 3.295c0.068 0.423-0.355 0.747-0.719 0.546l-2.828-1.556-2.828 1.556c-0.362 0.199-0.787-0.123-0.719-0.546l0.54-3.295-2.287-2.333c-0.296-0.299-0.132-0.821 0.272-0.884l3.164-0.484z"></path>
</symbol>
<symbol id="icon-iconoir_home" viewBox="0 0 32 32">
<path stroke-linejoin="round" stroke-linecap="round" stroke-miterlimit="4" stroke-width="2" d="M25.333 17.333v8.533c0 0.212-0.084 0.416-0.234 0.566s-0.354 0.234-0.566 0.234h-17.067c-0.212 0-0.416-0.084-0.566-0.234s-0.234-0.354-0.234-0.566v-8.533M4 12.667l12-7.333 12 7.333h-24z"></path>
</symbol>
<symbol id="icon-iconoir_graph-up" viewBox="0 0 32 32">
<path stroke-linejoin="round" stroke-linecap="round" stroke-miterlimit="4" stroke-width="2" d="M26.667 26.667h-21.333v-21.333"></path>
<path stroke-linejoin="round" stroke-linecap="round" stroke-miterlimit="4" stroke-width="2" d="M5.333 22l10.667-10 4 4 6-6"></path>
</symbol>
<symbol id="icon-iconoir_large-suitcase" viewBox="0 0 32 32">
<path stroke-linejoin="miter" stroke-linecap="butt" stroke-miterlimit="4" stroke-width="2" d="M10.667 9.333h10.667M10.667 9.333h-5.333c-0.707 0-1.386 0.281-1.886 0.781s-0.781 1.178-0.781 1.886v13.333c0 0.707 0.281 1.386 0.781 1.886s1.178 0.781 1.886 0.781h21.333c0.707 0 1.386-0.281 1.886-0.781s0.781-1.178 0.781-1.886v-13.333c0-0.707-0.281-1.386-0.781-1.886s-1.178-0.781-1.886-0.781h-16zM10.667 9.333v-4.533c0-0.212 0.084-0.416 0.234-0.566s0.354-0.234 0.566-0.234h9.067c0.212 0 0.416 0.084 0.566 0.234s0.234 0.354 0.234 0.566v4.533h-10.667z"></path>
</symbol>
</defs>
</svg>
